/* XPM */
static char *E1707980012[] = {
/* columns rows colors chars-per-pixel */
"50 50 241 2 ",
"   c #180B04",
".  c #171509",
"X  c #151215",
"o  c #1C1514",
"O  c #16151A",
"+  c #1A171A",
"@  c #1C1A1C",
"#  c #1A1819",
"$  c #260E01",
"%  c #22130B",
"&  c #271709",
"*  c #391804",
"=  c #221715",
"-  c #241A16",
";  c #241C1B",
":  c #2A1E1B",
">  c #2B1B15",
",  c #361E14",
"<  c #192709",
"1  c #1B3306",
"2  c #1D2615",
"3  c #23231D",
"4  c #2D211B",
"5  c #272917",
"6  c #32241C",
"7  c #3B251B",
"8  c #3C2B1D",
"9  c #372615",
"0  c #293616",
"q  c #35331B",
"w  c #233509",
"e  c #1D1D22",
"r  c #201F23",
"t  c #1F2025",
"y  c #232225",
"u  c #2C2423",
"i  c #2D2926",
"p  c #24252A",
"a  c #29262A",
"s  c #27282D",
"d  c #2B2A2D",
"f  c #332623",
"g  c #342926",
"h  c #3C2B25",
"j  c #342D2C",
"k  c #3B2E2B",
"l  c #3A2722",
"z  c #34312E",
"x  c #3C322D",
"c  c #3B3527",
"v  c #2D2C31",
"b  c #312E31",
"n  c #382F30",
"m  c #353332",
"M  c #3B3532",
"N  c #3E3934",
"B  c #343138",
"V  c #2C3425",
"C  c #451D01",
"Z  c #432B1D",
"A  c #492818",
"S  c #542B16",
"D  c #4D321D",
"F  c #563219",
"G  c #4F280B",
"H  c #64371A",
"J  c #6A360D",
"K  c #432D24",
"L  c #4A2E23",
"P  c #412F29",
"I  c #453226",
"U  c #4B3225",
"Y  c #44342C",
"T  c #4A362A",
"R  c #4C392B",
"E  c #453A2E",
"W  c #533424",
"Q  c #5C3924",
"!  c #523629",
"~  c #543A2B",
"^  c #5D3B2A",
"/  c #573824",
"(  c #423631",
")  c #443A33",
"_  c #4A3C34",
"`  c #493C36",
"'  c #553C33",
"]  c #633B25",
"[  c #1B4401",
"{  c #2F4D19",
"}  c #3B4F28",
"|  c #3D6B1B",
" . c #79461C",
".. c #714A15",
"X. c #5D412C",
"o. c #4C413A",
"O. c #494135",
"+. c #52443B",
"@. c #5B4536",
"#. c #4F5534",
"$. c #63422D",
"%. c #6B452A",
"&. c #7C4E2C",
"*. c #744828",
"=. c #7A5229",
"-. c #6D4D35",
";. c #654835",
":. c #764C34",
">. c #6B533C",
",. c #7B5331",
"<. c #73543A",
"1. c #7A5639",
"2. c #4F6E34",
"3. c #7C6038",
"4. c #614F40",
"5. c #685646",
"6. c #7D5C43",
"7. c #775A45",
"8. c #796447",
"9. c #736652",
"0. c #695E53",
"q. c #854D1D",
"w. c #91571A",
"e. c #834D28",
"r. c #885324",
"t. c #845B35",
"y. c #875A37",
"u. c #995D2D",
"i. c #99642D",
"p. c #8A613B",
"a. c #93653C",
"s. c #986839",
"d. c #9B723B",
"f. c #A8753E",
"g. c #AC7335",
"h. c #A05C2B",
"j. c #845F43",
"k. c #836449",
"l. c #8B6A4C",
"z. c #886447",
"x. c #9B6D43",
"c. c #946A47",
"v. c #9E7244",
"b. c #9E734A",
"n. c #977643",
"m. c #8D6D53",
"M. c #977655",
"N. c #8A7359",
"B. c #A27445",
"V. c #A4754A",
"C. c #AC7C4C",
"Z. c #A7794A",
"A. c #A97C53",
"S. c #B17F4E",
"D. c #897062",
"F. c #5D8637",
"G. c #6C954D",
"H. c #B6803A",
"J. c #9F825D",
"K. c #AC834E",
"L. c #B7864C",
"P. c #AC8258",
"I. c #B48451",
"U. c #BC8B53",
"Y. c #B88857",
"T. c #BF9152",
"R. c #908B6E",
"E. c #A38764",
"W. c #A59B74",
"Q. c #AB8C78",
"!. c #AEA578",
"~. c #85AC60",
"^. c #C7994D",
"/. c #C39254",
"(. c #CC9A5A",
"). c #C79657",
"_. c #C69052",
"`. c #CA9966",
"'. c #D2A263",
"]. c #D8A967",
"[. c #DBB36B",
"{. c #DCAC73",
"}. c #D7AD6D",
"|. c #E4B968",
" X c #E7B674",
".X c #EDC768",
"XX c #F5CB76",
"oX c #EDD374",
"OX c #F4D576",
"+X c #F0CA6F",
"@X c #73B6AB",
"#X c #77BCB3",
"$X c #7DB19B",
"%X c #6BCBDB",
"&X c #67C6D6",
"*X c #7BCEDC",
"=X c #74CBD9",
"-X c #7FD1DE",
";X c #76C3C8",
":X c #72CEE0",
">X c #6BCAE0",
",X c #5FC0D1",
"<X c #A39E81",
"1X c #8EAB90",
"2X c #AFAB8B",
"3X c #95B6A8",
"4X c #8EBBB2",
"5X c #A5B9AA",
"6X c #E2BB80",
"7X c #B6CA95",
"8X c #B9CE92",
"9X c #A6C1B2",
"0X c #AAC5B7",
"qX c #AEC0AD",
"wX c #8AC1BB",
"eX c #EFD585",
"rX c #EAE48C",
"tX c #FBE399",
"yX c #C3D9BF",
"uX c #FFE3A2",
"iX c #C0C58D",
"pX c #89CACA",
"aX c #97CBC7",
"sX c #81CFDC",
"dX c #84CFD6",
"fX c #84D1DE",
"gX c #89D3DB",
"hX c #98D6D6",
"jX c #A9D3CD",
"kX c #A5DBD9",
"lX c #B8DBCE",
"zX c #A8E0DC",
"xX c #8BD6E3",
"cX c #93DAE4",
"vX c #95DEE9",
"bX c #99DDE4",
"nX c #96E1EB",
"mX c #9BE1E9",
"MX c #A3E0E1",
"NX c #C3DCCC",
"BX c #C3E0C2",
/* pixels */
"z j y - ; u i u r a f j j M M ( ` _ ' ' ^ ] e.u.h.h.y.:.] ! ' P P P n P n n v g j a v f u ; @ @ i z ",
"b i 4 3 ; # + + O O + + ; ; ; ; : : , A A G J J w.e.J S A C , : : r r = r r = r r = + + @ @ 3 : i m ",
"z z z x m r + X O O e O X O O + + ; r , A A J  .h.h.J S A , u ; + + + O O O O O X O O O r j j j z M ",
"j m ) x N M r + e O O e O e e y r r v P L :.y.r. X`. .:.' L k v p t r r r O + e e + O r b B ) ` N N ",
"j M _ o.` N a O e e e e e e r y a r n k L ] e.u.uX6XH *.^ L n f v v p p e e t e e e e p b ( 4.` N N ",
"j x o.o.o.N a + e p t t e s s a a j P P ^ ] e.h.uX6X .:.^ L P B v v s p p p s s s r r p b o.+.` N M ",
"z M +.' o.N d e e e r r p s d v j n ( T ' :.r.w.h.q.e.e.^ L P B v v s v v s p t p p r r M o.+.` M M ",
"z x ` o.o.) d @ e p s p p s d d v k ` T ! *.h.S._.H.e.:.^ L P n v B B v s s s e r e e p ( ` +.` M M ",
"d x ) _ ` ` v t p p p p p s v v d x M Y ! %.f._.H.H.f.c./ Y Y j d b d s v p v v s p y j N M O.M M N ",
"z z ) _ ( z v e t e y t t y y s a g k I W :.i.H.w.h.s.p.Q I g j d d s p p r e p y t t y z N o.` N m ",
"m m ( ` o.N d e t t y p y s d d j j x Y / =.i.f.q.q.i...<.W k j b v v s p p e t y t y y N ) ` O.N N ",
"z M ) ( ( M m y s s p s s v b m m M Y O.<.3.,.n.....3.-.k.;.( n j m d d B v v s s p p d N ) O.O.m m ",
"z m ( ( ) M d t p s s p p s d m M M T @.<.8.2X7XW.W.iXR.8.>.+.c z j v v d s s s s d y i N O.O.) N B ",
"z M o.) ( M M y p p s t s s s m k Y _ 7.5.2XBXlXBXyXNXyXJ.<.4.c x m m v v s s v d s s d ) ) ) N m m ",
"z M Y ) x N z y t s s s s s d j j h @.>.R.lXkXmXzXzXzXzXqX0.@.R g d d d d d i s s i s u M ( E N N N ",
"z M - E _ x z y s p p s p v d x E T >.0.5XzXMXnXnXnXnXMXNXR.5.;.Y m j v b v s d s s y u c N O.x m B ",
"z M 4 _ ) ( M y p p a a a d a n Y T D 9.jXzXmXnXnXnXnXbXlX5X5.~ k n b j v a v v b d a j M } ) N m m ",
"z x u ) E ( M y y s s a a n k ( ) I @.9.jXhXmXnXnXcXnXhXkX5X>.~ ( ( n b b v b n d d a a M N ( x m m ",
"z x 6 ` ) Y j @ @ e a y y i j k I W l.2XjXcXbXnXvXvXvXcXkX0XN.7.P ( n j a a r r y y ; y m N E V z m ",
"z z u E ) ` x X @ @ p i i j f h T X.1.W.jXcXcXcXvXcXcXcXhX9X7.6.K P g b b r B a @ r 3 i O.c c q z m ",
"z x 4 ) _ E j o @ O e i f j f P T X.l.W.kXgXcXcXcXcXcXcXhX0XN.6.L P j a b r a r # @ 2 3 V 0 #.#.0 V ",
"m M 6 ) _ ) k X O # e u r j k K I W D R.jXcXcXxXxXcXcXgXhX0X8.F K P j f f f r ; @ 3 2 2 2.2.2.{ { } ",
"j M 6 ) ) ) j   + o ; i f f P P ! %.J.W.aXgXxXxXxXxXxXgXhX3X8.c.L K P j j u f r i 2 < } ~.~.F.| G.2.",
"n m 4 E Y ( g X o + r f f P P ! / -.n.E.aXgXfXxXxX-XfXgXaX9XJ.b.W P Y P g u f r 3 2 0 #.2.| | F.| [ ",
"n M 6 _ T ( j o o + r k f P P ! / ,.v.W.aXdXfXfX*X-XsXdXaX9XJ.c.F L P P j f g u 3 3 V 2.2.[ 1 2.[ { ",
"n x 6 _ ( T j = ; ; f k k P T ^ Q =.B.W.aXdXfX*X:X-XsXdXhX5XP.x.F ' ' Y P f f j 4 @ 5 0 #.1 1 < < V ",
"j m 6 _ T Y g o r r f h l P L ! Q ,.f.W.0X*X-X*XsXxX*XdXhX9XJ.c.F ^ ! U K h h f : u 4 5 w 1 { < < [ ",
"j m 6 Y I k k : u i f f l K L Q $.=.B.W.aX*X-X-XsX*X:XdXpX5XE.V.] ] ;.' P P P ( f : > - q < 0 1 < t ",
"z z 4 Y _ T M : u f k h K K ! ] *.*.a.W.aX=X*X-X:X*X*X*XpX9XJ.a.] :.:.] U P K K 6 l > : q . < < t V ",
"j x 4 ) R E k : g f h h K L W ] %.=. .2XaX=X:X%X=X%X=X*XdX3XM.a.*.*.] ;.! K K K K 7 7 6 q . . . V v ",
"j z 4 E R I k : 4 f 7 K K A F %.=.=.s.W.pX%X>X%X%X:X%X*X*X3XM.s.H *.] W ! U K P K Z h 7 g & . . t V ",
"m j : k E P f ` _ 6 h K L W ] ,.y.r.b.!.#X&X&X>X%X%X%X=X;X4XE.B.] y.&.] ! ~ L L L K h 7 q 0 < < p B ",
"n j 3 _ P P f ` 5.l K L L S ] e.u. .B.W.4X&X&X&X>X>X>X%X;X3XE.f. .&.%.] S ! ! L L K K 9 O.#.5 . 3 z ",
"m j : Y ( P n ( @.K , Z K Q ] e.x.w.d.W.4X,X&X,X,X,X&X&X#X3XE.d.*.c.1.:.;.! ! W L L 8 8 #.w < . 3 z ",
"z i - ( k 4 f n ' L K K , A L ] y. .f.!.4X&X&X%X&X%X&X%X;X3XP.s.H ] A S L A A L A A l 8 q 0 8 . 3 m ",
"z j : Y k ; f ( 9.D.;., , , A S F =.K.!.1X#X@X#X#X#X@X@X$X1XP.Z.G A A A , C ;.D.7.4._ h 5 O.5   y m ",
"z i - j g 4 j +.D.D.j.A C C * C S J q.K.7X7X8X8X8X8X8X8X8X!.d. .C C * * * * $.Q.N.0.o.j & O.2 . 3 m ",
"z j - 4 f - : : L :.7.] Q ] j.y.f.C.i.[.tXrXrXrXrXrXrXrXrXOX[.C.v.x.c.p.*.F :.-.P 4 4 ; 9 8 &   3 m ",
"j g 6 6 4 o + = A :.z.A.A.`.`.{. X X+XXX+XoXoXOXOXOXoXoXOXOXOXXXXX X{.{.'.Y.V.<.6 = = = 9 8 . . 3 m ",
"j z j 4 : o = 6 l ;.A.A.`.S._.{.].].|.XXoX.X.XOXoXOX.XOXOXXXXXXX[.].(._./.Y.A.5.: f = 5 Z 9 % . = n ",
"g g g > ; = = f P W j.V.V.S.Y._.`.U._.(.^.^.|..X.X.X.X[.|.].].'.(.(._.).U.Y.b.;., g = , 5.D $   o g ",
"u g g 6 = = = 4 K L z.A.A.A.Y.Y././.).(.(.^.|..X|..X[.^.^.T././._.(.U.U.I.A.c.X.: u ; & S G     o i ",
"u j l : = = o ; , ^ c.A.A.x.V.V.B./.'.'.].(.[.[.[.[.}.'.'.'.'.'.(._.L.C.S.V.c.>.9 ; = & %.*     o : ",
"4 j P h : o . - = ! j.b.V.A.A.S.I.I.I.L.T.T.).T././.T.T.T.T.U.L._.Y.U.S.C.Z.b.%., - = & t.S $   o u ",
"4 u K @.h & .   % D j.c.x.b.b.V.Z.S.I.I.I.Y.U.I.K.K.C.S.U.I.K.K.C.Z.V.v.x.x.c.%.$ % $ , :.S $   : u ",
"4 q X.>.;.Z Z 8 A ] c.c.x.x.b.x.x.V.V.x.v.Z.v.C.K.C.Z.v.B.B.B.v.x.v.x.a.a.a.c.j.W K 7 W -.G $   > : ",
"8 ! ;.-.<.-.$.;.-.1.j.:.e.j.j.y.&.=.t.t.p.p.y.a.x.s.a.y.p.t.t.t.t.y.y.t.,.t.t.t.1.-.-.5.] * $   % : ",
"4.5.5.<.7.7.7.6.7.6.k.7.j.j.j.j.l.l.z.l.m.m.M.M.m.m.m.c.m.l.m.M.m.l.z.z.1.k.k.k.k.8.k.8.;.&   % r ( ",
"c Y c P I T I I Y T R R R ~ R ~ R ~ R U T R T T T R T T D R U T R T U U U T R D I I I I 6 : = = i j ",
"i 4 u 4 : 4 6 4 6 4 6 6 4 4 6 6 4 4 4 6 4 4 9 5 4 > 4 4 4 5 4 4 4 4 4 4 6 4 4 5 4 > 3 4 4 3 ; y f f "
};
