/* XPM */
static char *_8a7568865ba436df39b98136a476fabbpRCtOcrJ3oOzrx6[] = {
/* columns rows colors chars-per-pixel */
"100 100 49 1 ",
"  c #3E342D",
". c #2E343B",
"X c #2F383F",
"o c #3D3632",
"O c #3E3835",
"+ c #31373D",
"@ c #32383E",
"# c #363A3D",
"$ c #363A3F",
"% c #373B3F",
"& c #393839",
"* c #3B3838",
"= c #38383B",
"- c #3F3938",
"; c #38393C",
": c #393B3D",
"> c #3D393C",
", c #40332B",
"< c #42342B",
"1 c #40332C",
"2 c #40362F",
"3 c #41382E",
"4 c #403630",
"5 c #443731",
"6 c #423734",
"7 c #413931",
"8 c #413834",
"9 c #403837",
"0 c #2F3740",
"q c #2F3940",
"w c #323740",
"e c #323941",
"r c #353A40",
"t c #363A41",
"y c #373B41",
"u c #383A40",
"i c #383B42",
"p c #3D444A",
"a c #575C62",
"s c #585D63",
"d c #63676D",
"f c #63686E",
"g c #646970",
"h c #A7AAAE",
"j c #A8ABAE",
"k c #CECFD1",
"l c #CFD1D3",
"z c #D1D2D4",
"x c white",
/* pixels */
"            222244555422          2222222222222222222222222<<<2222<<222<<<22222<    22        22  ,,",
"            o444444444424ooo oo4 22222222323333222222222222222222222222222222222    2              1",
"oooooooooooooo8888886644oo--Oo88444444447777777774444477444222444444424    4o477o   ooo oooo  o     ",
"ooooooOO&OOOO------88888-------8--------------------------ooo78-oo---ooooooooo--oooo-OooOOO-oooooooo",
"&&&&&&&&-&&;&&&->->>->>>-&&&;&>>---------------&&&&&&--&&&&&-&-&&&&&&&&&&&&&&&&&&&&&&&&&&&&&&&&&&&oo",
";#;&;;;;;;;;;;;;;;;;;;;;;;;;;;;;;;;;;;;;;&;;;;;;&&;;;&&&&&&&&&&&&&&&&&&&&&&&&&&&&&&&&&;;;;&&&&#;&&&&",
"##########rrruuuuuuuuuuu;;uuuuuuuu;;;;##;;;;########;;;##################&##&&&########;;;#####r####",
"rrrrrrr###rrrrrrrrrrruuurruuuuuuuuu#rr####rr##rr####rr###############################rrrrrr#rrrrr###",
"rrrrrrrrrrrrrrrrrrrrrruuuurrrruuuurrrr####rrr###rr####rr##############@@##########rrrrrrrrrrrrrreeer",
"rrrrrrrrrrrrrrrrrrrrrrrruuurrruuurrrr##@##rrrr##rrr###rr########r#####@@#######rrrrrrrrrrrrrrereeerr",
"rrrrrrrrrrrrrrrrrrrrrrrrrrrrrrrrrrrrr##rrrrrrrrr######rr#####rrrrrrrrrr@#####rrrrrrrrreerrrreeeeeeee",
"rrrrrrrrrrrrrrrrrrrrrrrrrrrrrrrrr#rrr#rrrerrrrrr######rrr###rrrrrrrrrrrrr####rrrrrrrrreerrrreeeeeeee",
"rrrrrrrreeeeeeeeerrrrrrrrrrrrrrrrr#reerre@@@eeee@@@###rrrrrrrrrrrrrreeeeeerrrrrrrrrrrrrrrrrerreeeeee",
"rrrrrrrreeeeeeeeeerrrrrrrrrrrrrrrreeeerre@@@eeeee@@@##rrrreerrrrrrrreeeeeerrrrrrrrrrrrrrrreerrrrrree",
"errrrrreeeeeeeeeeerrrrrrrrrrrrrrrreeeeeeeeeeeeeee@@@####rreeeeeeereeeeeeeerrrrrrrrrrrrrrrreerrrrrree",
"eerrrreeeeeeeeeeeeerrreeerreerrrrreeeeeeeeeeeeeeee@@##@@eeeeeeeeeeeeeeeeeerrrrrrrrrrrrrrrreerrrreeee",
"rreeeeeeeeeeeeeeeeeeeeeeeeeeeeeeeereeeeeeeeeeeeeeeee@@@@eeeeeeeeeeeeeeeeeeeeeerreeeeeeeeeeeeeeeeeeee",
"reeeeeeeeeeeeeeeeeeeeeeeeeeeeeeeeeeeeeeeeeeeeeeeeeee@@@@eeeeeeeeeeeeeeeeeeeeeerreeeeeeeeeeeeeeeeeeee",
"eeeeeeeeeeeeeeeeeeeeeeeeeeeeeeeeeeeeeeeeeeeeeeeeeeeeeeeeeeeeeeeeeeeeeeeeeeeeeeeeeeeeeeeeeeeeeeeeeeee",
"eeeeeeeeeeeeeeeeeeeeeeeeeeeeeeeeeeeeeeeeeeeeeeeeeeeeeeeeeeeeeeeeeeeeeeeeeeeeeeeeeeeeeeeeeeeeeeeeeeee",
"eeeeeeeeeeeeeeeeeeeeeeeeeeeeeeeeeeeeeeeeeeeeeeeeeeeeeeeeeeeeeeeeeeeeeeeeeeeeeeeeeeeeeeeeeeeeeeeeeeee",
"eeeeeeeeeeeeeeeeeeeeeeeeeeeeeeeeeeeeeeeeeeeeeeeeeeeeeeeeeeeeeeeeeeeeeeeeeeeeeeeeeeeeeeeeeeeeeeeeeeee",
"eeeeeeeeeeeeeeeeeeeeqqqeeeeeeeeeeeeeee@@@@@@eeeeeeeeeeeeeeeeeeee@@eeeeeeeeeeeeeeeeeeeeeeeeeeeeeeeeee",
"eeeeeeeeeeeeeeeeeeeeqqqqeeeeeeeeeeeeee@@@@@@eeeeeeeeeeeeeeeeeeee@@eeeeeeeeeeeeeeeeeeeeeeeeeeeeeeeeee",
"eeeeeeeeeeeeeeeeeeeeqeeqeeeeeeeeewweee@@rr@@@@@@eeeeeeeeeeeeeeeeeeeeeeeeeeeeeeeeeeeeeeeeeeeeeeeeeeee",
"eeeeeeeeeeeeeeeeeeeeeqeeeeeeeeeeewwerr@@rr@@@@@@@eeeeeeeeeeeeeeeeeeeeeeeeeeeeeeeeeeeeeeeeeeeeeeeeeee",
"##rr@@wweeeeee@Xeeeeeeeeeeeeeeeerrrrrr#######@@@@@@@eewweeeeeeeeee@eeeeeeeeeeeeeeeeeeeeeeeee@@@@@@@@",
"##rr@@wweeeeee@Xeeeeeeeeeeeeeeeeerrrrr#########@@@@@@ewweeeeeeeee@@@@@@eeeeeeeeeeeeeeeeeeeee@@@@@@@@",
"##errrwweeeeeeweeeeeew0eeeeeeeeewweeeeee@@@######@@@@@ww@wwweeee@@@@@@@@eeeeeeeeeeee@@@@@eeeeerr@@@@",
"##eerreeeeeeeewweeeeww0eeeeeeeeeeeeeeeee@@########@@@@@@wwwweee@@@@@@@@@@eeeeee@eeee@@@@@@@@@@r@@@@@",
"rreerreeeeeeeeeeeeee00weeeeeeerreeeeeeeeee@#######@@@@eeeewwww@@@@@@@@@@@eeeee@@@@@##@@@@@@@@@@@@@@@",
"rreereeeeeeee@XXXXXX..XXXXXX@@ee@XXX@@@@@@@@@@@@@@@XXXXXXXXXXXXX@+.....XXXXXXXXX.@@@@@@@@@@@@@@@@@@@",
"@@ewwweewwwwe@X............XXX@@XX...XXXX............................................+@@@@@@@@@@@@@@",
"@@ewwweewee@@pafffffffffffffffgggggfffffffffffffffffffffffffddddffffffffffffddfffffffsp@@@@@@@@@@@@@",
"eeerwweeweeXXajzzkkkkkkkkkkkkkllkkkkkkkkkkkkkkkkkkkkkkkkkkkkkkkkkkkkkkkkkkkkkkkkkkkzzjsX@e@@@@@@@@@@",
"eeereweeeeeX.fzxxxxxxxxxxxxxxxxxxxxxxxxxxxxxxxxxxxxxxxxxxxxxxxxxxxxxxxxxxxxxxxxxxxxxxzf.@e@@@@@@@@@@",
"eeeeeeeeeeeX.fzxxxxxxxxxxxxxxxxxxxxxxxxxxxxxxxxxxxxxxxxxxxxxxxxxxxxxxxxxxxxxxxxxxxxxxzf.Xeee@@@@@@@@",
"eeeeeeeeeeeX.fkxxxxxxxxxxxxxxxxxxxxxxxxxxxxxxxxxxxxxxxxxxxxxxxxxxxxxxxxxxxxxxxxxxxxxxkd.Xeee@@@@@@@@",
"eeeewewwwweX.fkxxxxxxxxxxxxxxxxxxxxxxxxxxxxxxxxxxxxxxxxxxxxxxxxxxxxxxxxxxxxxxxxxxxxxxkf.Xeeeee@@@@@@",
"eeeewwwwweeXXdkxxxxxxxxxxxxxxxxxxxxxxxxxxxxxxxxxxxxxxxxxxxxxxxxxxxxxxxxxxxxxxxxxxxxxxkfXXeeeee@@@@@@",
"eeeeeeeeeeeXXfkxxxxxxxxxxxxxxxxxxxxxxxxxxxxxxxxxxxxxxxxxxxxxxxxxxxxxxxxxxxxxxxxxxxxxxkfXXeee@@@@@@@@",
"eeeeeeeeeewXXfkxxxxxxxxxxxxxxxxxxxxxxxxxxxxxxxxxxxxxxxxxxxxxxxxxxxxxxxxxxxxxxxxxxxxxxkgXXeee@@@@@@@@",
"@@eeee@@eeeXXfkxxxxxxxxxxxxxxxxxxxxxxxxxxxxxxxxxxxxxxxxxxxxxxxxxxxxxxxxxxxxxxxxxxxxxxkfX@ee@@@@@@@@@",
"@@eewe@@eeeXXfkxxxxxxxxxxxxxxxxxxxxxxxxxxxxxxxxxxxxxxxxxxxxxxxxxxxxxxxxxxxxxxxxxxxxxxkf.Xw@@@@@@@@@@",
"eeeeweeewwe@Xfkxxxxxxxxxxxxxxxxxxxxxxxxxxxxxxxxxxxxxxxxxxxxxxxxxxxxxxxxxxxxxxxxxxxxxxkf.X@@@@@@@@@@@",
"eeeeeweewwe@Xfkxxxxxxxxxxxxxxxxxxxxxxxxxxxxxxxxxxxxxxxxxxxxxxxxxxxxxxxxxxxxxxxxxxxxxxkf.X@@@@@@@@@@@",
"eeeeeeeeeee@Xfkxxxxxxxxxxxxxxxxxxxxxxxxxxxxxxxxxxxxxxxxxxxxxxxxxxxxxxxxxxxxxxxxxxxxxxkf.X@@@@@@@@@@@",
"eeeeeeeeeee@XfkxxxxxxxxxxxxxxxxxxxxxxxxxxxxxxxxxxxxxxxxxxxxxxxxxxxxxxxxxxxxxxxxxxxxxxkfXXw@@@@@@@@@@",
"eeeeeeeeeeeXXfkxxxxxxxxxxxxxxxxxxxxxxxxxxxxxxxxxxxxxxxxxxxxxxxxxxxxxxxxxxxxxxxxxxxxxxkfXXe@@@@@@@@@@",
"eeeeeeeeeeeXXfkxxxxxxxxxxxxxxxxxxxxxxxxxxxxxxxxxxxxxxxxxxxxxxxxxxxxxxxxxxxxxxxxxxxxxxkf.Xe@@@@@@@@@@",
"eeeeeeeeeeeXXfkxxxxxxxxxxxxxxxxxxxxxxxxxxxxxxxxxxxxxxxxxxxxxxxxxxxxxxxxxxxxxxxxxxxxxxkf.X@e@@@@@@@@@",
"eeeeeeeeeeeX.fkxxxxxxxxxxxxxxxxxxxxxxxxxxxxxxxxxxxxxxxxxxxxxxxxxxxxxxxxxxxxxxxxxxxxxxkf.X@@@@@@@@@@@",
"eeeeeeeeeeeXXfkxxxxxxxxxxxxxxxxxxxxxxxxxxxxxxxxxxxxxxxxxxxxxxxxxxxxxxxxxxxxxxxxxxxxxxlf.X@@@@@@@@@@@",
"eeeeeeeeeeeXXfkxxxxxxxxxxxxxxxxxxxxxxxxxxxxxxxxxxxxxxxxxxxxxxxxxxxxxxxxxxxxxxxxxxxxxxlf..@@@@@@@@@@@",
"eeeeeeeeeeeX.fkxxxxxxxxxxxxxxxxxxxxxxxxxxxxxxxxxxxxxxxxxxxxxxxxxxxxxxxxxxxxxxxxxxxxxxlf..@@@@@@@@@@@",
"eeeeeeeeeeeXXfkxxxxxxxxxxxxxxxxxxxxxxxxxxxxxxxxxxxxxxxxxxxxxxxxxxxxxxxxxxxxxxxxxxxxxxlf.X@@@@@@@@@@@",
"eeeeeeeeeeeX.dkxxxxxxxxxxxxxxxxxxxxxxxxxxxxxxxxxxxxxxxxxxxxxxxxxxxxxxxxxxxxxxxxxxxxxxkf.X@@@@@@@@@@@",
"@@eeeeeeee@X.dkxxxxxxxxxxxxxxxxxxxxxxxxxxxxxxxxxxxxxxxxxxxxxxxxxxxxxxxxxxxxxxxxxxxxxxkf.X@@@@@@@@@@@",
"@@@@@@eeeeeX.fkxxxxxxxxxxxxxxxxxxxxxxxxxxxxxxxxxxxxxxxxxxxxxxxxxxxxxxxxxxxxxxxxxxxxxxkf.X@@@@@@@@@ee",
"@@@@@@eeeeeX.dkxxxxxxxxxxxxxxxxxxxxxxxxxxxxxxxxxxxxxxxxxxxxxxxxxxxxxxxxxxxxxxxxxxxxxxkf.X@@@@@@@@@ee",
"@@@@@@@@@@eX.fkxxxxxxxxxxxxxxxxxxxxxxxxxxxxxxxxxxxxxxxxxxxxxxxxxxxxxxxxxxxxxxxxxxxxxxkfXXe@@@@@@@@ee",
"@@@@@@@@@@eX.flxxxxxxxxxxxxxxxxxxxxxxxxxxxxxxxxxxxxxxxxxxxxxxxxxxxxxxxxxxxxxxxxxxxxxxzf.Xe@@@@@@@@ee",
"e@@@@ewwwweX.fzxxxxxxxxxxxxxxxxxxxxxxxxxxxxxxxxxxxxxxxxxxxxxxxxxxxxxxxxxxxxxxxxxxxxxxzf.X@e@@@@@@@ee",
"ee@@@wwwwweX.ahzlkkkkkkkkkkkkkkkkkkkkkkkkkkkkkkkkkkkkkkkkkkkkkkkkkkkkkkkkkkkkkkkkkkzzja.X@@@@@@@@@ee",
"eeeXX@eeeeeeXpagdddddddfddddddddddddddddddddfffffffdddfffffffffffffddffffffffffffffffap@@@@@@@@@@@ee",
"eeeeX@eeeeeeeXX.......................................................................@@@@@@@@@@@@ee",
"eeqqeeeeeeeeeXXXXX..XX..++++................++............++++++............++++++++..@@@@@@@@@@@@@@",
"eeqqeeeeeeeeee00ee@@@@@@@@@@@@@@@@@@@@@@@@@@@@@@@@@@@@@@@@@@@@@@@@@@@@@@@@@@@@@@##@@@@@@@@@@@@@@@@@@",
"eeeeeeeeeeeeeeeeeew@@@@@@@@@@@@@@@@@@@@@@@@@@@@@@@@@@@@@@@@@@@@@@@@@@@@@@@@@@@@@@@@@@@@@@@XX@@@@@@@@",
"qeeeeeeeeeeeeeeeeeee@@@@@@@@@@@@@@XX@@@@@@@@@@@@@@@@@@@@@@@@@@@@@@@@@@@@@@@@@@@@@@@@@@@@@@XX@@@@@@@@",
"Xqeeeeeeeeeeeeeeeeee@@@@@@@@@+@@@@@@@@XX@@@@@@@@@@@@@@@@@@@@@#@@@@@@@@@@@@@@@@@@@@@@@@@@@@XX@@@@@@@@",
"Xqeeeeeeeeeeeeeeeee@@@@@@@@@++@@@@@@@@XX@@@@@@@@@@@@@@@@@@@@@#@@@@@@@@@@@@@@@@@@@@@@@@@@@@XX@@@@@@@@",
"qeeeeeeeeeeeeeeeww@@@@@@@@@@++@@@@X@@@XX@@@@@@@@@@@@@@@@@@@@@@@@@@@@@@@@@@@@@@@@@@@@@XXX@@@@@@@@@@@@",
"eeeeereeeeeeeeeeww@@@@@@@@@@++@@@@XX@@X@@@@@@@@@@@@@@@@@@@@@@@@@@@@@@@@@@@@@@@@@@@@@@XXX@@@@@@@@@@@@",
"eeeeeeee@@eeeeeeee@@@@@+@@@@@@@@@@@@@@@@@@@@@@@@@@@@@@@@@@@@@@@@@@@@@@@@@@@@@@eeeeeee@@@@@@@@@@@@@@@",
"eeeeeeee@@eeeeeeee@@@@@+@@@@@@@@@@@@@@@@@@@@@@@@@@@@@@@@@@@@@@@@@@@@@@@@@@@@@@eeeeeee@@@@@@@@@@@@@@@",
"qqeeeeee@@eeeeeeeee@@@@@@@@@@@@@@@@@@@@@XXXX@@@@@@X@@@@@@@@@@@@@@@@@@@@@@@@@@@eeeeee@@@@@@ee@@@@@@@@",
"qqeeeeee@@eeeeeeeee@@@@@@@@@@@@@@@@@@@@@XXXXX@@@@@XX@@@@@@@@@@@@@@@@@@@@@@@@@@eeeee@@@@@@@ee@@@@@@@@",
"qqqeeeee@@ee@@eeeee@@@@@@@@@@@@@++@@@@@@@@..XXX@@@@X@@@@@@@@@@@@@@@@@@@@@@@@@@@@@@@@@@@@@@eee@@@@@@@",
"qqqqeee@@@ee@@eeeee@@@@@@@@@@@@@++@@@@@@@+..XXX@@@@X@@@@@@@@@@@@@@@@@@@@@@@@@@@@@@X@@@@@@@eeee@@@@@@",
"qqeeee@@@@ee@@eeeee@@@@@@@@@@@@@@@@@XX@@++++@@@@@@@@X@@@@@@@@@@@@@@@@@@@@@@@@@@@@@@@@@@@eeeeeee@@@@@",
"qqeeee@@@@ee@@eeeeee@@@@@@@@@@@@@@@@@X@@++..@@@@@@@@XX@@@@@@@@@@@@@@@@@@@@@@@@@@@@@@@@@@eeeeeeee@@@@",
"XXeeee@@@@eeeeeeeeee@@@@@@@@@@@@@@@@X@@@+.++@@@@@@@@XX@e@@@@@@@@@@@@@@@@@@@@@@@@@@@@@@@@ee@@eeee@@@@",
"XXeeee@@@@eeeeeeeeee@@@@@@@@@@@@@@X@XX@@+.++@@@@@@@@XXee@@@@@@@@@@@@@@@@@@@@@@@@@@@@@@@@ee@@eee@@@@@",
"XXqeeeee@@eeXXeeeeeee@@@@@@@@@@@@@@@@@@@@@.+@@@@@@@@@@ee@@@@@@@@@@@@@@@@@@@@@@@@@@@@@@@@@@@@@@@@@@@@",
"XXeeeeee@@eeeeeeeeeeee@@@@@@@@@@@@@@@@@@@@@@@@@@@@@@@@ee@@@@@@@@@@@@@@@@@@@@@@@@@@@@@@@@@@@@@@@@@@@@",
"XX@@@@eeeeeeeeeeeeee@@ee@@@@@@@@@@XX@@@@@@@@@@@@@@@@eeeeeeeeee@@@@@@@@@@@@@@@@@@@@@@@@@@@@@@@@@@@@@@",
"XX@@@@eeeeeeeeeeeeee@@ee@@@@@@@@@@@X@@@X@@@@@@ww@@@@eeeeeeeeee@@@@@@@@@@@@@@@@@@@@@@@@@@@@@@@@@@@@@@",
"qqee@@weeeeeeeeeeeee@@ee@@@@@@@@@@@@@@XX@@@@@@@@eeeeeeeeeeeeee@@@@@@@@@@@@@@@@@@@@@@@@@@@@@@@@@@@@@@",
"qqeew@eeeweeeeeeeeee@@ee@@@@@@@@@e@@@@XX@@@@@@@@eeeeeeeeeeeeee@@@@@@@@@@@@@@@@@@@@@@@@@@@@@@@@@@@@@@",
"X00weeeeeeeeeeeeeeeeeeee@@@@++@@@@@@@@@@X@@@@@eeeeeeee@@@@eeeeee@@@@@@@@@@@@@@@@@@@@@@@@@@@@@@@@@@@@",
"XXXw0eeeeeeeeeweeeeeeee@@@@@@++@@@@@@@@@@@@@@@eeeeeee@@@@@eeeeee@@@@@@@@@@@@@@@@@@@@X@@@@@@@@@@@@@@@",
"XXXX0weeeeeeeeweeeeweeXX@@@@@@@@@@@@@@@@@@@@@@eeeeee@@@@@e@@wwee@@@@@@@@@@@@@@@@@@@@@@@@@@@@@@@@@e@@",
"XXXXwweeeeeeeeeeeeeeeeXX@@@@@@@@@@@@@@@@@@@@@@eeeeee@@@@@@@@wwee@@@@@@@@@@@@@@@@@@@@@@@@@@@@@@@@@@@@",
"@@Xweeeeeweeeeeeeeeeeeeew@@@@@@@@@@@@@@@@@@@eeeeeeee@@@@@@@@eeee@@@@@@@@@@@@ee@@@@@@@@@@@@@@@@@@@@@@",
"@@eeeeeeeeeeeeeeeeeeeeeeww@@@@@@@@@@@@@@@@@@eeeeeeee@@@@@@@@eee@@@@@@@@@@@@@ee@@@@@@@@@@@@@@@@@@@@@@",
"wwwweeeeeeeeeeee@@@@eeeeeeX@@@@@@@@@@@@@@@eeeeeeeeqqee@@@@@@@@@@@@@@@@@@@@eeee@@e@@@@@@@@@@@@@@@@#@@",
"wwwweeeeeeeeeeee@@@@eeeeeeXX@@@@@@@@@@@@@@eeeeeeeeqqee@@@@@@@@@@@@@@@@@@@@eeee@@ee@@@@@@@@@@@@@@@#@@",
"eewweeeeeeeeee@@@@@@@@eeeeXX@@@@@@@@@@@@@@eeeeeeeeeeqq@@@@@@@@@@@@@@@@e@eeeeee@@eeeeeeeee@@@@@@@@@@@",
"eeeweeeeeeeeee@@@@@@@@eeeeXX@@@@@@@@@@@@@@eeeeeeeeeeqq@@@@@@@@@@@@@@@@eeeeeeee@@eeeeeeeeee@@@@@@@@@@"
};
