/* XPM */
static char *wall_11707745396[] = {
/* columns rows colors chars-per-pixel */
"100 100 23 1 ",
"  c #3F3125",
". c #3F352C",
"X c #2F363D",
"o c #2F383E",
"O c #373737",
"+ c #3D3633",
"@ c #3D3935",
"# c #31373E",
"$ c #39373B",
"% c #32393E",
"& c #3A3A3C",
"* c #453325",
"= c #493325",
"- c #43342A",
"; c #4A362A",
": c #46382D",
"> c #483829",
", c #413734",
"< c #403933",
"1 c #2F3A40",
"2 c #333740",
"3 c #323941",
"4 c #383B41",
/* pixels */
"*******--*--*--*;=====;==-==******=====;>>*>>=*******>=**>>==*==>>>*==>>***>**>****>>*****==**=*=*==",
"*    -  .------:;,;;,-,;--- --**--->>->->>>-**>>>>*>>>--**--***- >*>******>*>>*  >..*>** ***********",
"+O+O+O+OO+++@@@@4,44,,,,,,$,@@<@@@<<:<<<<<<<:<<@<<<<<<@@<<<@@@<@@<@@:@@@...@@@@@.@@@@@..@<+<@+<<+-..",
"$$$$$4$&$$$$4&@44444$$$$$$2$&&&&O&&&&@&O&@@@@@@@@,&@&&@@@&@@@@@@@@@@@O@@&@O@@@@@@@@@@O@O&@&&&&OO$O#$",
"$$$$$4&&%&&%&$&44444443444$244&4&&4&&&4&&&&&&&&&&&&&&&@&&&&&&&4%&&&&@&1@&&OOO&&&&&&@OO&&434%4434$$#$",
"22%$4$%%&4&444&%444444344$24&4444&44%4%4&&41&4144&44&11441&4%&%%&&1&41@@&1&O&11&&&111&14333443342$$$",
"%$3#$%%%4%4#43444444444442444444444&144441&41&4&43&4414&&114%4&&&4&&1%411&1&&4111&1&1&1&144433342%$%",
"4444344$4%%444434444443444444444414444414&41&44&%&14&4&4&4&3&&4%1411&%@1&&%&1&&&&1&4&14&44343444#%&%",
"33343334%424434434444334443434444441&41141&44144&&1&&1444414%%1&4334141&&114334341411444441414413434",
"33444344&22344344343344444434444444&14&444&1414%41&1&14&&14&4&143441&1&11&444413444&1414411444144342",
"434334332224343344444444444444431444&444144144444144441144441444141411444&33143444144414411433411322",
"3324243424443333333443433343344341&%111441414334144&114441114&11443414414143443314114114441441413343",
"3444334433331141334343444433343341411&1411&1111%1&11441444111441414133331441413314444441411144413413",
"43323133313314333333443334344443441111141&111&%%11O11&&411441&41341434334144433444144141441411143414",
"4222433441331134334434343343433314144141&11411444%1&414141411111414131333314433314141444414141441433",
"3242343141314141333433433333433341414111114&41%111%114444114141441333444134%343414111411141414111333",
"343333333333333333333333333333334333311333333333&43o33333343%%33332234334344143331344334433131331411",
"333333333333333333333333113333333343333333333333333333343333%3332122%3333441143444333433343143331143",
"3333333333333333333313333333333333333333333333334233333333333131123333333113134114333333433413131113",
"3333334333333333333333333333333333333333333333333333333333333333333333333333333441333433343333134143",
"33333333332333313133333333333333331333331143333333333333423331333%1333333333333311133333311133331131",
"3333333333233332333111333333333333413333333333333333333323331333%33333333333131314333333331433331134",
"3333333333233323333331333333333333133234333323333333333333%o3313133333333333333433333333431433334313",
"33333333232233223331311333333333333132243343243333433333%%3%31%3313133333333333331143333331133333343",
"3333333223321211333321112122333333222322%3%%%%2222333%2$33322121X23333331333333333333333333322243332",
"3313223333221222333322211232333333223444%3%4%%2222133322o%121222122333313333333333333333333324223322",
"333322222222222113312111323233333334#322%%%#4%%%22%$3322%12X1112121313333333333333333333#%42#%223322",
"333322222222221231131121323233333333%22$%4%4%%$324##1%2#33211221212233333333333333333143#424##223322",
"432222223322221231233212333333332233%%33#%4%%%%%2324##2132##2X22#22222323333333333333333%%%%3%%%3322",
"4324422211222221333321223322333333%3%3334%%%44&%22##121231232222##2211233322323333333333%%%%4&%%3322",
"4333223312212212333311223112333332332233%%%4#%%%%32231311222%%222#2222323222223333334334%%%%o%%%3222",
"33234333211212213333122133313333333331424%%%#4%4%42221322122##22#22212233222233333333334%%%%%o&#2223",
"3222222121212121212232122333334133333%%43%%%%44%3$332122122####2212221122222oo%%%3&33%43%3o%o#oo#%%%",
"3323222122112212X3221X##1133333%33214#%%o%4%%%23%%#413212121###22121#2222#21o%%%%o3%%o33%3%o##%##%$%",
"222322122222122132222221213333&o3%343%%3%%3%%%33%%3333331122$#2212X221212121%o%#%3%%o%4%%%X%%%#%##33",
"222222322112123221222112X233%%41%o32o%%%3%o33%423%33333222222#12231112122212%o&%%o%3%%%%o3%#%o%o%#%3",
"3322222212#22122121231#32333%%%%#222322133133322%4%4X2311222#$1221221221X%$4%X#%3%%3%%3#2223#XX2%o33",
"2222223121211222211233%$2331%oo122221#12X3234422%%4%21X22122##2113211122X#%%X%o%%%%43%222#33312#%33o",
"33332122332213333323%%%%%X1%%ooo31333X2223222324323212222X22##22X%$##$1X##%%3Xo%%o33212112213#21123X",
"23333232233333333332##%%%4%3%%%%32221222222#213331222122o322$2223o2###2X%#%%%%%X%%333212212123132213",
"33X1#2123133133333331%3%1%%33%3ooo3323322222423%12%3##2$3322##$2o3%%%%o3%%333%%o%%%%#321211#o%X%1222",
"2211##2Xo33333333333oo%%%31&1%%%3oX32333222233%1314$#2$21321##3#%o##%#33%oo%%3%%3o%#%%331222%#%X2122",
"22222#22o33333331331X#44%%3%%%1o333311113133o1X2oo%##$X2X33222%%%%%$%%3oo%%%%%oo4%$3%#2221122322#3#%",
"2222XX22133333333333%%%%3%%%%1&3o13311331333333#o%#2#2X2333322#$#%#%X%3%1%%3o3%%#%4#%#221133332##$%%",
"$#21#3#2333333313133%o%%%o33%43o%3132133232121##X%22222131122222%o##%%%%&%%o3%oo%##%#%1221X12##%%o%o",
"2#12%%223333333333333%o%3%&3%%%%3%333221112X22##%%22X222322X2222%o#%%&%%%%%1%%%%%X%##%2#121222#%X%#%",
"%#21o%33133333333333o%%33%%%%3%o3%1312221X2222#2212#X2113312$%##33%%%3%%o%1%%3%%%o%3%%1122XXX%o3%%%$",
"#%12%333333333133333ooo%%%33%%31%%31211#111112##132222213313%%%#13%%%&%o%%%%&%%%o%%$%X13122223%%#%%#",
"%%3%331133333333113313%#43%%%%4&%%XX%X##%o%#%X%o###22X22X22#2222#X#212%%#%#%%%%o%%%&o%1%%%3&%33%%$%%",
"%%33333333313333413313&%#%4%%%%%343%o%XXoo%#o%oXXX#1X22X22####22#X#$2#%#%%X%oXo%3o%4%%4333%3%%%%%%%%",
"3113333343113333114322%%3%%%%%%3%%2X33%ooo##X%#2X#212XX2X#####2212$##X22#%%%%%%#%%11%ooo%1%%3%o3%%23",
"3333333313343333411332%%%%3%%%%%%%12213X%Oo%XX1X###1$#2###$X$#2#21#X#%12%%o3%Xo3%%3%%%%3%%3%1%%33#3#",
"41333%334333333333332%%%%33%%3331221333o%%oo##X3X##2###22X2###2#11211112322X##%%&%%%3o3%1&333%%%o%2X",
"4333%%33333333333333%3%#%o23%o2131221%X%o%##X##X#X22$#22#22###222XX222212312%%%%33o3&1%%%1%%%%3%%o21",
"33333333334333333333%X3%o%%o1#323213oooOX#%o#X##X#####2#####XX2X1X1X1123X312#4%%%%%%%%%%%%11%333#o3o",
"3%33%&3433233333313Xo%$%%oo%21213233oooXXXoo#####X2###2#$###XX222122121212213%%o%o3%%1o&1411%333X%32",
"%34%$2223322233333321#3%22#%2222222211XXX##%%#2##%##2$%322$###X#X%Xoo%%1%###%o%#o%oo%%o%%3X%%%%32121",
"%%%#222221223211#121#%X%23$%2222211X12###X#X%#$#%#%#22########X#%XX%%o31%%%%o%%%%o%o%%%1%3%333332212",
"%X##222211222122123#%%o%%#%$23X%##31X#2######X2###$###$#$X$X###XXXX%o%%3%o%%%%#%%o%%33%32333oo%%1221",
"3%4%2#222322121223o%%#%#%%%##1%%XXX2##2X####%#1###%%#3%%$XX$##1#%X%Xooo3%%%%%#%%o%%o%13o121X%%%%2121",
"%3%%222222222211%%oo%%21#%$3%%$####X#X2XX###1X1Xo%#2$#3%%%%$##2#XX%#o3o%%%%#%%o%2#121o%o2122#2221233",
"%3%%222112222111#%#%##%$%%%##%%%###X##21#X#222#%%o22%$#%$%#%#$#%%o%o31%%#%%%##%ooX2233%%1212##222133",
"%33o222222221212%X%#%%%%%%%$$%#%#$#####XX#2X1#o%o%%%%%%#%%#%4#%%X%%#o%o#oO$###%##%#221X31221#%##1132",
"3%33221112221122%##%3$#2$#%3%%%%###$##22#X11##%#%#3$%%#%%#%##%3$X%o%o%%#%#%#o%o%o%2#132113123$#2X113",
"33313%3332222222X2###%%#%%%$%###%%#$##2##X22%#%$1#o%Xo%#$2%#%%%%#%o%Xo%oo#%%#%%#%3223o33o%%%%o%%%o33",
"3331%o1%3o#1212211X##%%$#%#%%##$#######2X###%#%%#%%%%%%%%%%%3$#%%#%%%%#%%3%#%%X1%X22%%3ooo%%o%%ooo13",
"333131o1%o1331321231%####%###X%%3X3X#3X2##$2%%%%%X3#o%#%3o%o%%$%%#%X233X#%%%%%22$%%%%oX%%%%o12%o%%o3",
"33333333o%3313X3232X$%##$##%%$#%3X%%X%1###%##3$%o%%o#%#%%X%%#%33%%o%1o%%%%###%2$%%##XX#oooo%23o%3%33",
"111111313o333331X13122$###%%#O##3X#Xoo#X##%1#%%#X%%%%#3ooo%%#%%3%o%##%%o%o%22$$%%%%%#%XXoo#%X%X3%%oo",
"41411333133313312221$####O%%%#%%2#X#XOXX$#%o$%3%3%##%o#%%o%o$%#$#%o#%Xo%#o%$##3%##$%$%%%o%##%oX%oo13",
"113413133333323312323####$%%#O%%##Xooo#XXX%%1#%#o%%%%o%o%%##3%%%##12133#%%2222%#%%#%oo%o##X%#%%%33oo",
"313333131333213X1221###########$#XXoOXo#X%%o#%o%X%%%X%#%#%%4%%#%#%3#31o3##1233%%%%%%%%o%###%#%o%o%o%",
"113341133313223232#1%##X####OOX#22#X%XX##X22X2%3%#%%%$3%##$3#%%##%%%3122#%1212X%122#%####%o%o%o%o%o%",
"1131144333342212312X###O####o#####X#%X#oXX113313%%$%%#%%%%%#%%#4%%%%2222$o2121#X2211XXX#%o%%%%o%%%%%",
"1133143311332%12123#$######O#%###%o#ooX##X1231oo3X3#$3#3%%%%%#%3%%%%%#3#%#1212X1XXX33%21%3%o%1%%%3%3",
"1131133343131322122#####%$##O%##o##oooX###2#12%%%%o%%%%$$#3$%$%%#%%%o%#%#X122322%%21211%%%%31%3%%3%&",
"11114343113333332121%##########$%O##Xoo#X%%X%Xo1o%%%#%%%3%2##%%X##%X%o1##%#%21213122%o33&11o&%3%%%3%",
"11143333143333221222##%$###$####%##oXo#X#XoX%%33%##%#%#%%##$X%%o##%o%%$%2$%212331221%o1313%%3o1%%%33",
"11113333&%3333o33131$###$##########XOoo#o#XX#XXXoo1132%%%%2#32#X##%%X%%%#$22XX222#X2o%%%%33331%%%oo%",
"11333343o%3113312231%%#######$#####ooo#X#X##oX%%Xooo#3%##%2231%X%%%4%o#%%%22#%221113%1&%%%&1%3&1%%%o",
"13133%%%X22112221212#X###$###$###$X%XX%XXX###X#X##21#X1223%#o%%o%1%o%oX%%#$%#%12221232%%%3%333333%%%",
"1133%%33X22222212121#######$######oX%%XXX%O#X#X%#2X1X12232%%%%X%oo#%X%3%%%%%%#212121o2%#%%%%3333%%3%",
"11133%%o%%2X12122121XX###O#######X##X#X%oooXX1%XXo122211X3$3#3%#%%%o%%3#%##%%$32X###%#32%3%o3333333o",
"11133o3%o312XX211221#X$#######$#X#1%XoX#ooOo%XXX%o22112113%%#%o%%o%X%o$#%%%#%%#13%$###1%%4%%33331333",
"o113234#22%#21212X122#$##X#####$%o%%XX#XoXooooX%%o%X12112212%%23X%o%%%21$#%%%%#$%%%3%%%%o%%oo3%%oo%o",
"1o3322%#22o%12121222X22XOO#$####o%%#X#oXXXOXo#XXo%%%212221#1#%3XX%o%#%1222%#22%%%#$%$%%%o%o%3%3o%%%%",
"o3112X123#2221212121222$X####$##ooOoOoo#oXoo%#22%#o312221221#%21X%%%#%#3%#%%X%21%3##%#%$%%3%%%%%1%o%",
"o1131X221322212221122X22########oooXoo#XXo%o%$22o#21222121222#13X##4%%%$%%%#3o23%$%%##%%oo%%33%3%3%%",
"3oX1X1211212121222211122#########%o%oXo#Xo3X122232121#22#1232123#%#%%$3$%%$%%%%$%%%%o%###%3%%%111&%%",
"o111111221211221222221322###O#O#oX%#oo%X#%3%21222122212131312213%o%%%%%3#%3#2$%#o%%o##ooo%%%3%1&11%%",
"oo11X122222221221221X212#2##O#XO%%X3oo%%X##%11121331%#22%###X%%%%#22$%#%$33$##2%%o%%o%%o%%%33&%%%13&",
"oooo1121221112112121212X22#4X##XX3X3ooXo%XX#12222X12oX22%3%X%oXXo%%%%%%#%%#%%%$3%%o%oo%o%%%%31%13o3%",
"X21X2221212221211221#2123#22#X##31##%XXX%X%X2121212#%o22%%2212%%%#%#%o%##%%%#%#2%o%Xooo%o%&111&%%%11",
"XXX21#1221211222211112211X22XX#%32##o%%%o%%%21121322#%32#442231%%####%%%%2%#%%23oo%%%%oO%%111%3%33%%",
"2221132112222222222121213XX3##%#%%22%%#%%oo%131X2233%oo%%#%%%##%%#X%o%#%12%#%$2#31o%%11%%o1&3%%%1&&%",
"X2221222222222221122331231#3#X%%##222$%%%o%321312113o%oo%%%#%%%%o%o%##3%21$322121%%%%%%o%%11%%3%%%%%",
"2222##22222X22221222123#1211%%X%#%#3%#%32222332112o%oo3oo%%%%o#O%ooOo%#23#1231213%oo%oX%%3%%ooo&o&11",
"1222#222122222222222212321X2%#%%%o%o3$%$22222o1222ooo%11%o%%%o#%%o&%%%2213221222%%%%33%%3%3o&oOo&o1&",
"1121XX2121211222##$#X#3%#22##%2#%%#%%%22#%2222211#121313#32#o%%%o%%%%o%%221#2112%3#%33%3%o%%%o%%1O%%",
"21221XX21212#122#12###%#22######oX%o#%22%%221#121311313%3322%%X#oo%%o%%&21211212%3%#133#3%%ooo&%&o%&"
};
