/* XPM */
static char *C1707980011[] = {
/* columns rows colors chars-per-pixel */
"50 50 243 2 ",
"   c None",
".  c #3F263E",
"X  c #59150F",
"o  c #491717",
"O  c #521713",
"+  c #58191A",
"@  c #691816",
"#  c #781917",
"$  c #65170F",
"%  c #532919",
"&  c #633419",
"*  c #461D29",
"=  c #551B27",
"-  c #441D32",
";  c #681D27",
":  c #781C23",
">  c #472127",
",  c #462337",
"<  c #562438",
"1  c #58202F",
"2  c #692438",
"3  c #6F2B25",
"4  c #76481D",
"5  c #714524",
"6  c #3B294A",
"7  c #3B2C56",
"8  c #34305A",
"9  c #363362",
"0  c #3A3774",
"q  c #293A71",
"w  c #472545",
"e  c #492956",
"r  c #582B50",
"t  c #762544",
"y  c #6B2B4E",
"u  c #4F3566",
"i  c #27457E",
"p  c #841715",
"a  c #951B12",
"s  c #8A2418",
"d  c #95321C",
"f  c #A52617",
"g  c #B63617",
"h  c #B72D14",
"j  c #881B29",
"k  c #8D1E36",
"l  c #922E26",
"z  c #D8271F",
"x  c #E53D1F",
"c  c #D62A22",
"v  c #D82B24",
"b  c #DB3224",
"n  c #DD3828",
"m  c #DA3836",
"M  c #CE3C28",
"N  c #E23A28",
"B  c #E33230",
"V  c #81501F",
"C  c #8E5324",
"Z  c #AB542B",
"A  c #9B6429",
"S  c #9C722E",
"D  c #B3762E",
"F  c #BE4816",
"G  c #D2551D",
"H  c #E85E1F",
"J  c #D9701C",
"K  c #E7641E",
"L  c #D64826",
"P  c #D84635",
"I  c #C54E29",
"U  c #E44626",
"Y  c #EB5C2A",
"T  c #E85827",
"R  c #F05E2C",
"E  c #EA5836",
"W  c #E14A3B",
"Q  c #DA7935",
"!  c #CB6F21",
"~  c #EE622C",
"^  c #EE6C2C",
"/  c #E86725",
"(  c #F16C2B",
")  c #EB7A27",
"_  c #F27B2D",
"`  c #F1742E",
"'  c #EC6839",
"]  c #F16B32",
"[  c #ED763B",
"{  c #F27332",
"}  c #F27A38",
"|  c #8F294F",
" . c #A13D5A",
".. c #BA3A6A",
"X. c #D53C58",
"o. c #DB3444",
"O. c #C53D65",
"+. c #B74879",
"@. c #BD4667",
"#. c #B27160",
"$. c #D74846",
"%. c #D94A55",
"&. c #D75654",
"*. c #E34D4A",
"=. c #E65957",
"-. c #E95949",
";. c #DA7859",
":. c #D8694C",
">. c #EC6D4B",
",. c #E66646",
"<. c #ED7448",
"1. c #F17946",
"2. c #EA6758",
"3. c #EE795A",
"4. c #F27455",
"5. c #F16C4B",
"6. c #D24F68",
"7. c #DB5764",
"8. c #CB5279",
"9. c #D65876",
"0. c #C44D6F",
"q. c #E45C67",
"w. c #E15B74",
"e. c #D97467",
"r. c #D96976",
"t. c #D9767B",
"y. c #D3656B",
"u. c #EB6A6B",
"i. c #EA7968",
"p. c #E86776",
"a. c #E97677",
"s. c #F06266",
"d. c #B68533",
"f. c #D88234",
"g. c #DA9631",
"h. c #CD9237",
"j. c #EA8525",
"k. c #F48B2C",
"l. c #F2842D",
"z. c #EB9829",
"x. c #F3932B",
"c. c #F59C2C",
"v. c #F7982B",
"b. c #E78738",
"n. c #F38334",
"m. c #F28A37",
"M. c #EB9732",
"N. c #F49332",
"B. c #F69A32",
"V. c #F49E3A",
"C. c #F3933D",
"Z. c #F3A32C",
"A. c #F8A52C",
"S. c #F6AC2C",
"D. c #F8AB2D",
"F. c #F1A726",
"G. c #F6B42B",
"H. c #F6BC2B",
"J. c #F8BC2B",
"K. c #F6B429",
"L. c #E8AA33",
"P. c #F5A332",
"I. c #F6AA32",
"U. c #F5B831",
"Y. c #E9B731",
"T. c #D3A338",
"R. c #FCD91F",
"E. c #F7CA27",
"W. c #F9CB26",
"Q. c #F6C42A",
"!. c #F8C52A",
"~. c #F7CC2C",
"^. c #F9CD2B",
"/. c #F6C327",
"(. c #F9D425",
"). c #FADB25",
"_. c #F7D42C",
"`. c #F9D42C",
"'. c #F7DC2C",
"]. c #F9DC2B",
"[. c #F7D326",
"{. c #F7DB33",
"}. c #F8DC33",
"|. c #F8D834",
" X c #F8C430",
".X c #FAE42B",
"XX c #F9E82C",
"oX c #F8E42A",
"OX c #F8E434",
"+X c #F18946",
"@X c #F29447",
"#X c #E98657",
"$X c #F18955",
"%X c #EA9D55",
"&X c #D88F73",
"*X c #E78666",
"=X c #E59179",
"-X c #E5A477",
";X c #E6AC71",
":X c #CCA97B",
">X c #F9DC40",
",X c #FAE34C",
"<X c #175C9C",
"1X c #274685",
"2X c #284F8B",
"3X c #1369A5",
"4X c #1171AA",
"5X c #155CA1",
"6X c #C95683",
"7X c #D35A81",
"8X c #DA678B",
"9X c #D6748C",
"0X c #D96B96",
"qX c #DA759B",
"wX c #CF799D",
"eX c #E56786",
"rX c #E77787",
"tX c #E36C92",
"yX c #E37996",
"uX c #DC76A3",
"iX c #DC7BA4",
"pX c #D96CA0",
"aX c #E07FAC",
"sX c #AB9DA7",
"dX c #DA888E",
"fX c #E5948D",
"gX c #D8AD95",
"hX c #F5B886",
"jX c #E9B795",
"kX c #E9AB8A",
"lX c #DC87A8",
"zX c #DE8DB1",
"xX c #E387A8",
"cX c #E293B7",
"vX c #E28BB4",
"bX c #D8ADAD",
"nX c #E1A2B0",
"mX c #F6C88B",
"MX c #F1CE96",
"NX c #E4C6A6",
"BX c #E8D1B3",
"VX c #E6A9C5",
"CX c #C5DDCD",
/* pixels */
"                                                                                                    ",
"                                                                                                    ",
"                                                                                                    ",
"                                                                                                    ",
"                                  bXfXu.7.e.t.t.9XdX                                                ",
"                              bXe.P N z z c v b m m %.r.                                            ",
"                          CXgX:.L x x U N N U b b v v o.%.9XnX                                      ",
"                        sX:X' T H H K / Y T R R T L m B o.X.6.dXbX                                  ",
"                      sX#.[ / j.c.K.K.Z.l.` ] ] ( ` ~ P m X.X.O.y.bX                                ",
"                       .Z ) L.W.R.(./.Z.l.} { { ] ] ' [ ,.$.X.O...0.&X                              ",
"                     .j Q k.^.).R.W.D.k.n.n._ n.} [ 5.>.>.,.$.@.+.@.&.&X                            ",
"                   .k l b.I.`.).R.W.I.N.k.k.n.} 1.1.5.2.=.e.&.@.+.+.0.:.;X                          ",
"                  | # l M.I.`.`.R.W.S.P.N.N.m.n.} <.5.>.2.q.9.8.+.6X8.6.#X-X                        ",
"                | k # C M.U.^.`.).[.G.D.A.B.m.n.} 1.4.>.2.y.8.8.6X6X8.8.e.*XgX                      ",
"                | p # A M.U. X^.).`.H.G.I.c.B.m.n.1.<.>.2.q.9.7X8X9X6X7X9.i.gX                      ",
"                k # $ A M.U. X^..X].Q.H.G.D.A.N.m.b.>.>.,.2.p.eXyXyXwX8Xr.i.kX                      ",
"              t j # X C M.I.U.^..X.X^.!.H.G.D.B.C.n.[ ' >.2.p.p.0X0XpXwX9X=X-XNX                    ",
"              t j # X V M.I.G.!.)..X`.^.E.J.K.D.B.m._ { >.4.u.rXtXpXiXuXqXfX;XmX                    ",
"              | j $ O 4 M.Z.G. X.X.X).`.W.!.H.S.A.B.n.1.1.u.p.a.yXyXuXxXqXdXhXmXBX                  ",
"              t j $ O & h.z.G. X].XX.X`.[.[./.H.S.B.C.+X4.4.i.rXrXqXuXxXxXlXjXmXMX                  ",
"              t : $ O & h.c.F.H.]..X.X).(.(.W.E.!.D.C.+X+X4.u.a.rXyXxXxXcXVXgXmXMXBX                ",
"              t 3 X O % d.z.F.K.(..X.X.X(.(.W.W.!.D.B.@X+X$Xi.i.rXyX9XxXzXcXzXjXMXMX                ",
"              t ; O O o A z.x.D.^..X.X.X).(.(.(.W.J.D.V.@X$X$X*Xa.rX0XuXxXcXzXnXMXMX                ",
"              t ; O O o 4 z.x.F. X.X.XXX).].(.(.W.!.U.I.P.@X$X$Xi.eXtX0XaXcXcXlXhXmXBX              ",
"              y 2 + o o & ! j.F.H.].oXXXoX_.).(.W.W.J.G.V.@X$X#Xu.eXtXtXaXaXlXwXfXhXNX              ",
"                2 = o O $ g ) c.K.~.oXXXoX'.].).`.^.!.J.P.@X$X$Xs.eXtXtXtXuXaXwXdXhXjX              ",
"                2 < * O # z K x.S.Q.'.XXXX'.].`.`.^.^.J.I.V.@X$Xs.p.eXtXtXtXtX0X9XkXkXNX            ",
"                t < - o @ f G j.F.H.~.XXoXOX].`.^.^.!.!.S.V.@X+X4.s.p.eXeX7XtXtX8XrX=XjX            ",
"                y r > * = p L / c.H./.].XXOX}._._.~. X!.G.P.+Xn.} 5.s.s.p.w.eXeX7Xr.t.-X            ",
"                  r w , * @ I T j.H.!.`.XXXXOX].`._. XU.G.P.N.n.{ { 5.=.q.w.9.9.8.9.r.*X            ",
"                  y e 6 , = h U K Z.!.E.}.XXXX}.`.~.~. XG.D.B.k.l.` ] -.=.s.q.q.6.6.9.2.;X          ",
"                  r r 7 w 1 d L G j.Q.E._.XXXXOX_.|.~.^.J.K.A.v.l.} ] ' ' -.=.q.6.6.7.=.-X          ",
"                    u r w - @ # f G F.[.^.}.OXOXOX`.~.~.E.J.K.D.c.x.n.{ ] W *.=.%.%.%.*.*X          ",
"                    u y r , 1 @ # g J /.`._.OXOX>X|._.`.^.E./.K.S.A.x.l.` E -.=.=.$.m *.#X          ",
"                      u e e w ; p a F z.^.~.|.OX,X}._.`._.`.E.Q.J.D.c.k.` ~ E -.W m B W 3.          ",
"                      2X0 e e < @ p f J K.~.`.|.,X}.}._._.`.~.E./.K.A.k.` ( R E U b B B <.          ",
"                        2X0 9 e < p a g j.!.~._.`.|.{.{.|.`.E.E././.S.x.) ^ R Y U b B B >.          ",
"                        3X2X0 e w @ p a I z.E.[.`.|.{.{.|.`.^.E.W.W.K.c.) ~ R T n b b b ;.          ",
"                          3X2X0 e 1 ; @ A z.S.~.`._.{.{.{._._.~.E.!.J.Z.k.( ~ R N b c n e.          ",
"                            5X1X9 w w < 5 h.L.U.~.(.'.{.{.{.`.|.^.!.Q.K.A.k._ ( n c c P =X          ",
"                            4X5X1X9 6 w , & d.L.Y.[.'.'.'.OX'._.~.E.Q.H.D.v.N.( n c c $.            ",
"                              4X<X1X9 w , > & d.L./.[.'.'.oXoX'.].~.!.!.J.D.k.T v z c e.            ",
"                                4X5X1X8 w , > % S Y.Q._.'.oXoXoX].].^.^.J.P.` U b z I =X            ",
"                                  3X5Xi 9 6 > > % 4 T.Q.~.'.oXoXoX].]. XP.} T n b M ;.              ",
"                                    4X<Xi 9 6 . * o % d.Y.Y./.E.!.!.G.B._ ~ U L L ;.                ",
"                                      4X<Xi 9 6 . * o o 4 D g.g.P.A.N._ ~ Y ~ ' *X                  ",
"                                          i 9 8 6 , . > ; s d Z D f.Q b.b.b.b.%X                    ",
"                                              8 . < 1 : f f f f a l l Z                             ",
"                                                                                                    ",
"                                                                                                    "
};
