/* XPM */
static char *P1707980012[] = {
/* columns rows colors chars-per-pixel */
"50 50 250 2 ",
"   c None",
".  c #390506",
"X  c #302D32",
"o  c #1B1A1F",
"O  c #470909",
"+  c #56040C",
"@  c #58160C",
"#  c #560911",
"$  c #591815",
"%  c #4C1612",
"&  c #670909",
"*  c #780A07",
"=  c #66150B",
"-  c #79150D",
";  c #690915",
":  c #7A0917",
">  c #661919",
",  c #7B161A",
"<  c #493412",
"1  c #562B11",
"2  c #692717",
"3  c #772918",
"4  c #7B361A",
"5  c #69250E",
"6  c #761925",
"7  c #7A132A",
"8  c #532A29",
"9  c #6B2626",
"0  c #793428",
"q  c #7B2A37",
"w  c #782A2F",
"e  c #5C1C20",
"r  c #484C1C",
"t  c #744F1B",
"y  c #52532B",
"u  c #4E702D",
"i  c #746F30",
"p  c #2D3C50",
"a  c #7B354C",
"s  c #453D55",
"d  c #325169",
"f  c #274E6B",
"g  c #4E4E52",
"h  c #6E524F",
"j  c #51596A",
"k  c #6E7946",
"l  c #830905",
"z  c #9B140B",
"x  c #8B0E1B",
"c  c #820B18",
"v  c #8A151B",
"b  c #99151B",
"n  c #910E10",
"m  c #B81A0F",
"M  c #A91716",
"N  c #AE1A10",
"B  c #842415",
"V  c #87371B",
"C  c #983514",
"Z  c #942B11",
"A  c #A7281A",
"S  c #AB2E17",
"D  c #880A26",
"F  c #881A25",
"G  c #9C1B2A",
"H  c #971626",
"J  c #951D34",
"K  c #A61B26",
"L  c #B41E25",
"P  c #A21B30",
"I  c #862728",
"U  c #992628",
"Y  c #893B23",
"T  c #8B2C34",
"R  c #962535",
"E  c #893437",
"W  c #983839",
"Q  c #9A3D24",
"!  c #A82528",
"~  c #B82628",
"^  c #A92838",
"/  c #B52B38",
"(  c #A93639",
")  c #B53738",
"_  c #AB352C",
"`  c #C63437",
"'  c #C2292B",
"]  c #C12413",
"[  c #8E481D",
"{  c #AF4A18",
"}  c #944727",
"|  c #984737",
" . c #8B462C",
".. c #A84538",
"X. c #B24C2C",
"o. c #917032",
"O. c #BC603E",
"+. c #CB521C",
"@. c #D1502E",
"#. c #D46829",
"$. c #E76E2D",
"%. c #953845",
"&. c #8C3448",
"*. c #A73745",
"=. c #B83643",
"-. c #A43C51",
";. c #C63B44",
":. c #C33F53",
">. c #974747",
",. c #9A465B",
"<. c #8F4E4F",
"1. c #A54A48",
"2. c #B74749",
"3. c #A9574C",
"4. c #B6544A",
"5. c #AB4953",
"6. c #B94754",
"7. c #AA5954",
"8. c #B95856",
"9. c #967253",
"0. c #B66559",
"q. c #AC704D",
"w. c #A65768",
"e. c #BA5665",
"r. c #BF5D71",
"t. c #B96867",
"y. c #B06F6E",
"u. c #965D6D",
"i. c #C54449",
"p. c #D64C4D",
"a. c #C84955",
"s. c #D34954",
"d. c #C95558",
"f. c #D85658",
"g. c #CE534C",
"h. c #C66559",
"j. c #D46459",
"k. c #C87658",
"l. c #C96F49",
"z. c #E8774A",
"x. c #C95968",
"c. c #D65964",
"v. c #CE5669",
"b. c #C86868",
"n. c #D5676A",
"m. c #C97766",
"M. c #D67669",
"N. c #C96875",
"B. c #D86975",
"V. c #CA7779",
"C. c #D77677",
"Z. c #E46664",
"A. c #E47669",
"S. c #E57779",
"D. c #E6737B",
"F. c #E45C5A",
"G. c #578732",
"H. c #5E8C33",
"J. c #638D38",
"K. c #699D43",
"L. c #79AD4F",
"P. c #768775",
"I. c #958A36",
"U. c #CE8737",
"Y. c #E58737",
"T. c #8E934E",
"R. c #84B55A",
"E. c #97AC6D",
"W. c #A8AD71",
"Q. c #BB9158",
"!. c #D2894C",
"~. c #ECAB55",
"^. c #CA8A7C",
"/. c #D88877",
"(. c #DB927B",
"). c #CD8871",
"_. c #E68179",
"`. c #EA8F6D",
"'. c #D1AF6F",
"]. c #F3B869",
"[. c #E8B360",
"{. c #E69B49",
"}. c #97C86F",
"|. c #A6CC7E",
" X c #327794",
".X c #0F74AE",
"XX c #175F8F",
"oX c #6C6E85",
"OX c #5F6081",
"+X c #B17594",
"@X c #885F83",
"#X c #DA7786",
"$X c #C97286",
"%X c #E57D87",
"&X c #E37C96",
"*X c #1183BB",
"=X c #218ABC",
"-X c #4A96AF",
";X c #4BA3BA",
":X c #6B85A4",
">X c #148EC7",
",X c #19A8DA",
"<X c #2CB4E3",
"1X c #34C4E9",
"2X c #63D7F5",
"3X c #B19299",
"4X c #9E9D8F",
"5X c #DC8386",
"6X c #D89885",
"7X c #D98495",
"8X c #D99697",
"9X c #C79390",
"0X c #E7888A",
"qX c #E69988",
"wX c #EC8C94",
"eX c #E78899",
"rX c #F09191",
"tX c #D6B28D",
"yX c #E4A28B",
"uX c #E7A994",
"iX c #EBB299",
"pX c #F2AD96",
"aX c #CA95AE",
"sX c #E898A5",
"dX c #ED97A7",
"fX c #D3A8A7",
"gX c #E7A4A9",
"hX c #F4A8A7",
"jX c #EAB8A4",
"kX c #F3BBA6",
"lX c #F3AAB9",
"zX c #F3B7BB",
"xX c #E6B2B5",
"cX c #B0D68C",
"vX c #EAC78B",
"bX c #F5CAB7",
"nX c #F0CCBC",
"mX c #DDC498",
"MX c #91B2D6",
"NX c #AFB2CC",
"BX c #EDB8C4",
"VX c #F1B5CC",
"CX c #C697C3",
"ZX c #90E5F9",
"AX c #F7C8C6",
"SX c #F9D7C6",
"DX c #F9D5D8",
"FX c #ECC7C6",
"GX c #F8E8E8",
"HX c #E4D5D1",
/* pixels */
"                                                                                                    ",
"                                                                                                    ",
"                                                                                                    ",
"                                        0XuX                                                        ",
"                                      gX0X/.0X                                                      ",
"                                      C.%X0XS.5X                                                    ",
"                                      5X5X0XD.S.gX                                                  ",
"                                      GXFXsXB.B.VXAXVXlXlXVXVXVX                                    ",
"                                GXDXAXlXwXS.` ;.%XdXrXD.F.f.c.B.dXVX                                ",
"                              VXlXzXDXzX0Xp.~ ~ Z.hXhXrXS.Z.s.i.s.&XVX                              ",
"                            sXA.rXDXGXAX_.p.L ` 0XSXDXhXrXD.Z.s.v.v.&XVX                            ",
"                          eXd.F._.hXbXhXA.' M _ p.B.0XS.F.p.` / :.#Xv.&X                            ",
"                          sXB.f.p.F.F.p.) _ b.(.C.d...) ` ' ' L / c.i.s.#X&X                        ",
"                        wXn.i.~ ` ' ' ~ 4.yXnXSXnXkXqXh.` ~ m L ' i.! G L a.dX                      ",
"                    DXBXs.! ;.` M ! ) k.iXSXSXbXnXbXjXyXM.4._ ! H K K D D P #X                      ",
"                  wXdX%X/ ! ;.;.! 0.qXuXuXbXbXbXbXbXiXyX).0.3.1.I x K K G / $X                      ",
"                  F.;.;.! ) ! n O.uXiX).m.).yXkXkXiXyXm.3.3.3.7.>.3 , H / ^ =.                      ",
"                  ;./ ~ R s.~ A C.uXy.<.E 5.(.kXiXyX).| Y 9 0 | 7.q - b / ^ K ` #X                  ",
"                  ` K x U p.L U qX6X9.g o g 6XkXkX(.).<.s X p <.7.>.: b L / D K c.dX                ",
"                    b./ : U ! ! (.iX4Xj f 4XjXbXbXuX).^.j p j 9.0.>.v b H F : b s.eX                ",
"                  dXrX=.c | d.X.M.kXbXHXHXFXSXSXbXyXyXjXfXfX9Xm.t.1.I U D : c b :.                  ",
"                Z.F.) H : F h.j.Z.qXkXSXnXjXkXbX_.h./.pXpXpX/.h.x.5._ W , D x K :.                  ",
"                p./ b K K P U ( ..j.A.M.m.j.m.uXqXm.0.h.k.d.X.=.5.T I 6 ^ =.L L B.                  ",
"                  K x : G s.~ c & U 4.j.h.m.(./.j.i.4.m.h.2.=.1.w # # R a.! x b s.dX                ",
"                  G H x H K K M c + > T ..0.m.).m.0.4.7.1.%.T > # ; G / P b x H =.                  ",
"                            H b n * & % $ = I W | | W w 2 % # ; D : D G     H G                     ",
"                              ^ K x y.9X7.5.%.1.1.W I 6 6 9 T T J H R                               ",
"                                    GXxXN.gXxX5XC.#XV.6.E W w.y.                                    ",
"                                  xX8XV.fX8Xj.c.N.C.C.C.5.E w.V.9X                                  ",
"                                  AXm.0.qXd.M.b.b.M.C.C.V.E w 3.8X                                  ",
"                                SXSXiX6X_.2.d.g.j.f.j.M.M.1.3./.8X8X                                ",
"                                9X(.(.(./.b.d.d.p.g.j.A.m.4.7.0.t.                                  ",
"                                    9X5.4.d.5XqX5XM.i.h.1.W %.@X                                    ",
"                              tX'.mXxXe.*.R *.6.6.( ( T F F w.CXuX^.6XvXvX~.{.!.(.mXvXtXtXxXgX7XN.  ",
"              d.          /.k.q.k.mXzXhXB.a./ =.d.F F R J J ,.aXaXu.Q.'.~.Y.+.X.O.!.!.8XgXeX#XN.h.t.",
"7X  #X0Xe._ ! ~ ~ ~ i.S.#Xv.^ A 4.BXAXAXrXB.c.=.) J *.2.-.*.-.+XaX;X;X;Xj ( ] N z A e.7XsX%Xa.( 3.^.",
"b.B.dXVXlX&Xd.~ ] L ~ @.s.;.L b V.zXbXBX0XD.%Xa.^ ^ a.n.N.6.-.w.$X:X>X*X*XoXv.B.a.*.6.a.;.' _ q.W.E.",
"/.0X&XeXwX&XeX&Xc.=.K M m m M K 6.N.V.t.8.x.n.a.) / 6.b.5.%.W %.-.y.+XoXOX+XdX&XC.x.( z z Q E.cX|.L.",
"pXrX`.Z.c.3XNXNXMX@XT ( l.z.g.X.! V.gX^.8.%.T F , I I T | >.<.w.$X#X%Xv.$X&XaX#XN.a.2.B 3 o.R.R.L.K.",
"z.z.$.@.:X1X2XZX2X,X-X).].vX].Y.#./.hX8Xm.1.T F 7 F I %.>.7.1.w.$X$Xv.e.a.v.#X$XN.x.q.U.U.Q.I.I.H.H.",
"@.@.+...-X,X1X1X,X>X>X;XQ.$.Y.$.#.A.wXS.s.( G F ; 7 P ^ 2.=.*.*.-.-.-.e.#X#XC.B.n.b.U.Y.Y.#.+.{ t H.",
"j Y C t y =X=X=X*X.XXX.Xg { +.+.+.j.0XB.i.^ D 7 O # H =.i.:./ *.&.7 &.N.C.C.9X(.tXW.}.T.o.{ C [ 4 h ",
"*Xd [ U.'.W.W.P. XXXf f y o.I.O.^.hXwXB./ J D : O # H ;.c.C.i.x.$Xq 7 &.w.W.cXcXcX}.L.K.i t 5 @ > w ",
"*Xd { Y.[.].~.~.z. .X y E.}.}.nXVXBX%Xv.*.P D D . + K i.%XdXsXwXeX$Xq $ k R.R.R.L.K.H.G.u 1 1 5 # ; ",
"XXg W j.`.`.!.$.+.X.i L.}.K.y.wXlXsXn.2.*.H D & O O D / c.0XzXgXB.6.T 1 u K.J.H.G.u u r < 5 4  .Y w ",
"g E _ g.j.@.` ] S Q T.E.E.9.( i.f.a./ P D ; + . . . # : ! ` g.` ^ b , 5 1 r y r r < < 1 5 3 >.3.7.1.",
"v l z z N m m A d.8XBXBXsXV.6.G H ~ L b & O O O @ = = 5 B A ` ` ! z 3 Y | q.3.1. .V V V V B I U A b ",
"> * * z z N ! ,.r.7X7XV.r.8.-.T 6 - l - = 3 3 4 4 V [ [ V A _ b l - } 4.k.).q.O...T Y V B l * * l l ",
"% $ = ; - - w &.,.w.w.u.,.-.&.q 9 w 0 Y  . .} } } } } } } V 3 3 5 C X.X.X.{ { S I 6 3 4 > = & & * * ",
"e 8 $ $ $ $ e q a h ,.a a a 9 e 0 | | | } } } } Y Q } Y [ V Y 4 3 B C C C S Z Z 6 = > 2 2 2 = % @ @ "
};
