/* XPM */
static char *S1707980012[] = {
/* columns rows colors chars-per-pixel */
"50 50 243 2 ",
"   c #1B0B0E",
".  c #18080B",
"X  c #1B0D13",
"o  c #170B11",
"O  c #1E1115",
"+  c #1F1219",
"@  c #1D140D",
"#  c #240901",
"$  c #210D0E",
"%  c #2C0E03",
"&  c #310E04",
"*  c #2E1205",
"=  c #25130C",
"-  c #2A140D",
";  c #251907",
":  c #341403",
">  c #391504",
",  c #3B1905",
"<  c #36150A",
"1  c #3C1C0C",
"2  c #36180A",
"3  c #210F13",
"4  c #231315",
"5  c #2A1513",
"6  c #2D1A14",
"7  c #24151A",
"8  c #2A1719",
"9  c #26191B",
"0  c #2B1B1C",
"q  c #261A12",
"w  c #321C15",
"e  c #321E1A",
"r  c #3B1D16",
"t  c #3D230E",
"y  c #2B2817",
"u  c #3D2214",
"i  c #34221B",
"p  c #3B241B",
"a  c #38251A",
"s  c #2C3012",
"d  c #2D1E20",
"f  c #321E20",
"g  c #2F2224",
"h  c #2F2428",
"j  c #332323",
"k  c #3B2522",
"l  c #3C2B24",
"z  c #332629",
"x  c #352A2C",
"c  c #3B2C2C",
"v  c #362A25",
"b  c #3C312F",
"n  c #3A3A27",
"m  c #3A2E32",
"M  c #3D3234",
"N  c #3F3438",
"B  c #430B00",
"V  c #461A09",
"C  c #541D06",
"Z  c #46170D",
"A  c #472208",
"S  c #582707",
"D  c #432513",
"F  c #452914",
"G  c #42261B",
"H  c #43281C",
"J  c #4C2C1D",
"K  c #4A2615",
"L  c #572916",
"P  c #5C321C",
"I  c #573518",
"U  c #673816",
"Y  c #7A3917",
"T  c #672E07",
"R  c #422621",
"E  c #432C24",
"W  c #4C2D22",
"Q  c #432E2A",
"!  c #4A2F2A",
"~  c #4C3125",
"^  c #45322B",
"/  c #4A332C",
"(  c #4D392E",
")  c #473326",
"_  c #523224",
"`  c #5A3423",
"'  c #5E3C23",
"]  c #51342C",
"[  c #533B2D",
"{  c #5B3D2D",
"}  c #5A372A",
"|  c #433434",
" . c #4B3532",
".. c #443836",
"X. c #4D3B35",
"o. c #423739",
"O. c #453A3A",
"+. c #4A3C3A",
"@. c #533C33",
"#. c #513D39",
"$. c #583C35",
"%. c #4E2E29",
"&. c #643A26",
"*. c #643E34",
"=. c #723D24",
"-. c #3B4D1B",
";. c #77461C",
":. c #6E481B",
">. c #5D412B",
",. c #4E403C",
"<. c #534036",
"1. c #5C4235",
"2. c #54423C",
"3. c #5C453A",
"4. c #5D493E",
"5. c #47542C",
"6. c #68422A",
"7. c #73452B",
"8. c #774826",
"9. c #644234",
"0. c #6C4533",
"q. c #62453B",
"w. c #64493C",
"e. c #6A4D3C",
"r. c #694738",
"t. c #754934",
"y. c #6F523D",
"u. c #755135",
"i. c #73533D",
"p. c #7B553B",
"a. c #7E5739",
"s. c #7D522F",
"d. c #576F35",
"f. c #544442",
"g. c #5A4742",
"h. c #574944",
"j. c #5C4B44",
"k. c #5C4C49",
"l. c #5F514A",
"z. c #634B44",
"x. c #694D42",
"c. c #614F49",
"v. c #604740",
"b. c #6C5243",
"n. c #63524C",
"m. c #6D574A",
"M. c #725444",
"N. c #7C5A46",
"B. c #6C5A53",
"V. c #667E40",
"C. c #7B6C66",
"Z. c #7F7069",
"A. c #803D22",
"S. c #843A0D",
"D. c #88471A",
"F. c #92471F",
"G. c #864928",
"H. c #8A552B",
"J. c #96562C",
"K. c #854D36",
"L. c #845B3C",
"P. c #855936",
"I. c #925C33",
"U. c #924B26",
"Y. c #A34E20",
"T. c #A45932",
"R. c #8C6136",
"E. c #93653B",
"W. c #986839",
"Q. c #A46A38",
"!. c #AF733A",
"~. c #A24F1D",
"^. c #C66C31",
"/. c #815C43",
"(. c #835E46",
"). c #86644C",
"_. c #8B654C",
"`. c #886647",
"'. c #946A49",
"]. c #8F6B52",
"[. c #936C52",
"{. c #977657",
"}. c #957154",
"|. c #A97747",
" X c #A57A58",
".X c #B07847",
"XX c #8B7E76",
"oX c #927966",
"OX c #CD7E45",
"+X c #65853C",
"@X c #7B9856",
"#X c #BB854B",
"$X c #AE825F",
"%X c #B68357",
"&X c #8F8279",
"*X c #A4856A",
"=X c #AA8A6E",
"-X c #A68569",
";X c #B58A64",
":X c #BC9269",
">X c #AC8C72",
",X c #AF9074",
"<X c #B29377",
"1X c #C38A4D",
"2X c #C58B52",
"3X c #C58A5B",
"4X c #C69254",
"5X c #CA9454",
"6X c #CA955A",
"7X c #CC9A5C",
"8X c #CB9958",
"9X c #D29C5B",
"0X c #D19A57",
"qX c #CF8C4D",
"wX c #E58B51",
"eX c #D3A25D",
"rX c #D0A257",
"tX c #CD9C63",
"yX c #C39669",
"uX c #D29D63",
"iX c #D5A464",
"pX c #D9A563",
"aX c #DBAA64",
"sX c #D5A56A",
"dX c #DAAC6C",
"fX c #D6A869",
"gX c #DDB467",
"hX c #D5AC71",
"jX c #DEAD73",
"kX c #DCB373",
"lX c #DCB47A",
"zX c #DEB97A",
"xX c #D6B072",
"cX c #E1AE6A",
"vX c #E5B96D",
"bX c #E3B472",
"nX c #E4BD72",
"mX c #E3BD7D",
"MX c #E3B778",
"NX c #FFBE77",
"BX c #EBC273",
"VX c #F3C878",
"CX c #EFC686",
/* pixels */
"{.oX*X*X*X*X*X*X-X-X-X-X>X,X,X,X,X<X>X,X,X=X,X>X=X<X,X,X=X=X>X>X>X>X=X=X-X-X=X*X{.oX-X-X-X-X>X*X{. X",
") : 1 t t t t u D F F t F F F F D D t u F F F F t F F F u t u t D K F F D A t t u t t u 1 D D 2 > { ",
") @ - 6 5 5 q 6 = 6 i 6 y w 6 6 w 6 i i i 0 i i a a a a a 6 i i w w e e 6 6 e e 6 6 6 6 w 5 5 - # ~ ",
"^ q q 7 d 9 d y 0 0 8 0 6 0 0 j g 0 d y d i 0 0 i j j i i 8 j i j j 0 d y d 0 0 0 0 0 9 8 8 9 9 - z.",
" .6 9 O 7 9 9 9 9 9 0 0 0 0 0 0 0 0 0 0 9 d d 0 8 9 d 9 9 9 0 e 9 9 0 9 7 9 9 9 q 0 9 8 d 4 4 0 5 b.",
"[ a g 4 O + 7 7 9 7 9 q 7 9 0 0 0 0 0 d g 0 d 0 d 7 d + 9 9 0 d d d 9 4 7 7 7 7 7 7 8 0 7 7 0 e H y.",
"e.[ a q O + + + 7 9 6 7 7 7 8 8 8 0 9 0 9 0 d d d 7 d d 7 7 0 9 d 7 7 + 7 7 7 7 4 4 X 3 7 8 e [ >.i.",
"M.9.<.i O + + + 9 7 7 5 4 4 $ 3 7 9 4 4 7 7 4 7 7 7 7 7 7 7 d 4 7 7 + 4 7 + + + O O X X 3 f  .e.0./.",
"R.y.e.) e d 7 X X X X     $ $ . . X o o o o o o o X X X o o X X o o   o X X X o o o . 3 e [ y._.`.R.",
"`.$Xu.[ R f 7 X X X 3 $   $ $   X 3 3 X 3 X + + X o X X X + + + + + 3 + X X + X o o o 7 E y._.{.;XE.",
"E.:X{.0.R k f 3 4 d 0 8 $ 5 4   4 d d 8 8 d 8 7 7 7 + + + + + 7 d d d 7 + 7 7 7 O   X e { /.[.:XyXE.",
"E.:X-XR.W R f 8 8 f k r 5 - $ $ 0 z c z z f z z f d f d d f d d d d 8 d 9 d 0 e 6 $ $ e r.[.;XyX:XE.",
"E.:X$X(.` J R < r W U ` 1 r e 5 j | | | |  ... . .| | o.| | Q m Q f f f r G W K p 5 $ G N. X XyXyX'.",
"E.:X$X'.&.J R w J t.'.I.U J r 5 Q X.X.#.+.#.f.#.f.#.f.#.#.#.#.#.#.] ] ] } *.7.K.` < # R K. X XyXyXW.",
"R.;XE.'. XL W Z L U.qX!.8.P J 5 / f.g.g.k.z.c.k.v.g.k.z.k.z.z.z.x.v.r.*.=.K.Q.3XG.Z & W K.;X(.yX:XR.",
"L.}.L.P.;X&.J Z C U.NXqXD.U ` < / g.j.k.c.c.c.z.c.g.k.z.g.v.z.z.v.x.x.M.K.T.qXCXT.C & _ /.|.K.;X$XH.",
"P.}.R.=.(.&.W Z L U.wX^.D.G.&.r @.j.j.z.l.l.n.c.c.c.n.z.k.j.z.w.x.v.r.K.K.T.^.OXT.C Z %.=.A./. X$Xs.",
"u.'./.&.L ` W r C Y Y.Y.D.I.0.D q.z.c.j.l.n.n.n.c.n.n.k.c.c.z.z.x.x.r.*./.A.Y.T.A.L B %.&.L K. X'.7.",
"s.}./.&.7.*.R r K &.A.U.8.'.a.J 3.z.z.z.j.j.l.j.4.j.4.h.j.j.j.w.z.*.*.x.K.K.A.A.&.Z 8 %.*.&.*._.].7.",
"u.[.p.A *.} E r Z %.=.=.=.'./.K q.q.4.j.4.l.j.j.j.k.j.4.j.z.v.g.v.v.*.*.*.*.K.*.%.r 5 %.*.` P ]._.u.",
"u.'.`.D } } Q e f %.} &.&.}./.F 3.j.j.j.j.c.j.k.j.k.l.j.j.j.g.3.2.$.$.*.*.*.} $.R f 3 %.*.R *.].).u.",
"u.`.N.e.$.$.! e f ! ] } ' [.p.K 1.4.4.j.j.j.k.j.j.c.k.k.g.g.2.#.#.#.$.$.$.$.%.%.R 8 7 R *.*.M.]._.u.",
"u.}.`.u.q.@.Q f z k ! ] _ _.i.H 3.g.<.X.g.k.j.j.j.j.g.2.+.#.X.X.#.#. .!  .! ! f f 8 3 R $.*.(.].).6.",
"u.N.).y.$.#. .j f k Q ! J (.M.G <.4.2.,.,.g.h.h.h.4.g.<.+.#.X.X. . . .Q Q c Q f f 8 3 ! %.q.(.(./.p.",
"u.N.N.b.<. .| e j i v E u M.y.u <.,.,.,.f.h.h.h.h.h.h.f.,.,.,.,.#.#.X. .Q c c k f d 7 Q  .v.N.N.N.i.",
"y.>.>.>.( / | z b O.+.Q E W W / n.B.h.k.l.k.k.l.l.h.l.h.h.l.l.l.n.k.k.f.f.f.f.f.f.| d f  .$.w._ 6.i.",
"' <.e.<.$.#.| j x | ..i u m.b.) ,.,.N ,.O.O.O.f.,.O.,.O.O.O.O.O.+.+.+.O. .....| o.f 8 f  .v.q.N.y.6.",
">.}.m.>.r w 8 v x b c j = w - w ,.N N ,.O.O.,.o.N O.N o.O.,.O.O.O.+.+.O.O.o.O.o.| c d f ! $.x.q.w.q.",
"{ r.D q.p w e x m M M z 6  .l i ..O.O.O.,.O.N N ,.N ,.N O.,.O.O.O.O.O.+.O.O.O.o.| z d f  .#.q.G 1.q.",
">.w.H 1.p i j x m m M h 6 <.E i ..O.O.O.N b n b b n x v b v b ,.o.O.O.O.O.o.| m | f d f  .@.v.H 3.<.",
">.q.H 1.p k f z x m M j i 2.^ 6 ..O.O...f.Z.&X&X&X&X&X&X&XXXC.O.o.O.o.o.o.N m m N f 7 d ^ X.4.H 1.<.",
">.w.H 1.G k j h x x b j i 4. .6 M b M v f.B.,.4.4.2.<.2.C.Z.C.M | o.N M N N N m m f 7 d c  .3.H 1.[ ",
"[ 1.~ 1.p H v h z x m j i ( i y | m m g e = . # # # # # E l +.v N N O.N M M b m v y @ g h ( ( W 1.[ ",
"[ q.b.1.H E l j v h c j 6 E i 0 | | m j e w & < > > < & 3.B.g.i N M N N M b h n n 5.s @ v ..w.w.1.( ",
"<.b.e.1.H E a a X.b c j 6 m.@.5 ..| m d e w & < > > > & [ z.g.0 M m M N M b h y d.@X5.y a / w.M.w.@.",
"[ b.b.1.F ) l l E ^ v i - [ E 6 c m z 7 6 w & > > , > < ~ E ..0 b m M M M M v s +X+X-.-.y ^ w.b.w.{ ",
"[ y.y.( u ( a l ~ ~ i g - X.E 5 m z z 4 6 w * > > > , 2 ~ p ^ 9 h x x x x z j n -.-.s s y E 3.M.w.@.",
"[ 4.3.) t y = a 1.~ 0 i = 3./ 5 z z d X q ( ) ~ ~ J ~ ~ ] ) ^ q h h h z z j 5 6 s ; ; ; w E 1.x.w.@.",
") 1.4.<.a i 6 < 1 2 5 i - @./ 4 y d 9 7 v +.<.( X.<.<.<.<.<...9 g h h h e l r.A ; # # - i Q @.q.3.[ ",
">.4.1.>.^ p 1 : V r - ; # / G # 5 5 = @ i ....^ E l l l X.) l = 7 5 q 5 $ V K.A > : & & 1 _ [ 1.z.@.",
"<.y.>.J A I 7.S > , D , K K ` D 2 2 2 - ; a p ^ E E ^ l l a u ; - > > , & V K.C B 8.J.D.S K } 1.3.[ ",
"~ e.9.>.u.7.8.8.V C 7.Y U U U P.'.R.`.U * * : : : : : : : * # J L.s.P.P.P.U T S B T qXOXOX7.` q.1.[ ",
"I i.0.u.' , s.;.U H.W.I.J.D.R..X.XQ.|.R.U 8.:.;.;.;.;.;.:.8.U s..X|.Q.|.Q.I.G.H.G.T S.F.Y =.` *.>.[ ",
"I ).6.A ].`.T U.Q.!.1X1X#XQ.1X5X1X5XtXsXtX7XfXsXiXiX6XuX7XtX6XtXuX9X#X#X2X#XQ.#X#XQ.D.Y B B P *.>.[ ",
"I a.6.A >.a.U ;.Q.2XqX5X4X0XeXeX7XeXpXaXrXrXgXrXaXeXrXrXeXrX4X8XiXpX9X1X6X5X#X#X3X2XY.C B B C 0.6.[ ",
"L L.s.t A :.U ;.5X0X5X9X5XrX0X0X8XeXaXaXrXBXVXBXBXBXaXVXBXBXvXrXeXeX9X4X8X8X6X#X1X2XOXQ.J.G.8.P.6.' ",
"T %XH.I I I H.6XcXeXaXaXeXcXcXaXvXBXBXBXvXVXVXVXVXVXvXVXVXVXCXgXvXvXbXdXpXiXiX9X2X9X9XuX6XtXuX3XR.U ",
"H.Q.:.A S :.#X9XeX9X7XrXaXcXbXcXkXBXgXBXgXBXBXBXBXBXgXvXnXnXnXfXdXdXdXpX0X7X8X5X4X4X6X5X4X1X4X3X.XE.",
"gX8X|.R.H.%XiXiXaXfXfXfXdXdXhXsXxXkXmXCXCXmXmXzXmXmXnXxXzXxXxXxXhXhXsXtX7XtXtX6XtX6X6X%X8X7XtXuXuXlX",
"xXxXlXhXsXlXkXkXdXkXMXlXMXMXMXmXmXmXmXmXzXzXlXhXzXzXzXzXCXxXhXzXlXlXlXlXhXtXsXsXuXsXsXsXfXjXjXjXMXuX"
};
