/* XPM */
static char *W1707980012[] = {
/* columns rows colors chars-per-pixel */
"50 50 145 2 ",
"   c #3E342B",
".  c #3F352B",
"X  c #3B322D",
"o  c #3C332C",
"O  c #3E332D",
"+  c #3C332E",
"@  c #3D342D",
"#  c #3F352C",
"$  c #3F342E",
"%  c #3E352E",
"&  c #3E372F",
"*  c #2E353B",
"=  c #2E353D",
"-  c #2F363C",
";  c #2F363E",
":  c #2F383D",
">  c #2F383F",
",  c #2E393F",
"<  c #3B3632",
"1  c #3B3633",
"2  c #3E3530",
"3  c #3F3631",
"4  c #3E3731",
"5  c #3C3733",
"6  c #3C3734",
"7  c #3F3734",
"8  c #3F3830",
"9  c #3F3832",
"0  c #393937",
"q  c #383A37",
"w  c #3D3834",
"e  c #3E3935",
"r  c #32373B",
"t  c #373739",
"y  c #31363C",
"u  c #30373D",
"i  c #33363D",
"p  c #32373D",
"a  c #31353E",
"s  c #30373F",
"d  c #32363F",
"f  c #34373E",
"g  c #30383B",
"h  c #31393C",
"j  c #33383C",
"k  c #323A3D",
"l  c #31383E",
"z  c #30393E",
"x  c #33383E",
"c  c #32393F",
"v  c #313A3F",
"b  c #333B3E",
"n  c #34393D",
"m  c #353A3D",
"M  c #363A3D",
"N  c #35383F",
"B  c #34393F",
"V  c #36393E",
"C  c #353A3E",
"Z  c #363B3E",
"A  c #373B3E",
"S  c #373A3F",
"D  c #363B3F",
"F  c #363C3C",
"G  c #343C3F",
"H  c #393939",
"J  c #383A39",
"K  c #38383A",
"L  c #38393B",
"P  c #39393B",
"I  c #3B393A",
"U  c #3A383B",
"Y  c #3A3A3A",
"T  c gray23",
"R  c #39383D",
"E  c #3A3A3C",
"W  c #3B3B3D",
"Q  c #3A393E",
"!  c #3B393E",
"~  c #3B3A3F",
"^  c #3C3A3D",
"/  c #40332B",
"(  c #41342B",
")  c #42342B",
"_  c #41342C",
"`  c #42352C",
"'  c #43352C",
"]  c #42352D",
"[  c #40362C",
"{  c #40362D",
"}  c #41372D",
"|  c #40352F",
" . c #43362E",
".. c #403730",
"X. c #433630",
"o. c #403732",
"O. c #443731",
"+. c #413735",
"@. c #413831",
"#. c #403931",
"$. c #403933",
"%. c #413A32",
"&. c #403835",
"*. c #413A34",
"=. c #413936",
"-. c #2E3740",
";. c #2F3841",
":. c #2F3A40",
">. c #303741",
",. c #333740",
"<. c #333742",
"1. c #313840",
"2. c #303940",
"3. c #323941",
"4. c #313A41",
"5. c #303B41",
"6. c #333A40",
"7. c #323B40",
"8. c #313842",
"9. c #303942",
"0. c #323943",
"q. c #333A42",
"w. c #323B42",
"e. c #343841",
"r. c #353841",
"t. c #363940",
"y. c #353A40",
"u. c #343B41",
"i. c #373A41",
"p. c #363B41",
"a. c #353942",
"s. c #343843",
"d. c #363942",
"f. c #343B43",
"g. c #363A43",
"h. c #333C43",
"j. c #373C40",
"k. c #373C42",
"l. c #333A44",
"z. c #343B45",
"x. c #343D44",
"c. c #393941",
"v. c #383B40",
"b. c #3A3B40",
"n. c #383B42",
/* pixels */
"o o X o + + ..| X.X.X.| | o + | ( | (  .} } } } | | + ( } | ) ' | ( ( | ( ( ) )   + | . + . | + ( ( ",
"< < 1 < w w +.=.+.+.=.+.+.=.=.=.=.8 %.%.8 8 *.*.%.%.%.8 %.%.....8 } ..%.& 8 %.%.4 8 %.& 8 8 8 8 %.+ ",
"P P t P R R R R R b.R R R T R R ^ T R T T P P P P P T T P P P P q P P P q q P P q j P P R P P j P P ",
"i.V i.i.i.V i.n.n.n.n.i.R k.k.k.k.D k.D ~ D V i.D D ~ D T V V V D F V D V F j D ~ V V V R V V i.V v ",
"g.,.,.,.i.i.i.i.k.i.i.i.n.k.i.i.~ R ~ k k k.k.V D V D D D D D k v V i.V D V v V D k 4.i.i.4.4.i.i.V ",
"i.i.g.i.i.v w.v i.i.i.i.i.k.i.i.V k.v i.i.v i.V V v V D D D D V i.i.v 4.v V V i.w.k.g.i.k.V g.:.4.v ",
"s.i.i.s.4.4.4.4.4.4.g.i.i.4.,.i.k.v v 4.v V 4.<.v v V D k.4.4.k.h.4.i.4.v V i.g.w.h.x.h.w.4.g.s.s.4.",
",.s.s.4.i.4.s.4.4.w.s.4.V i.i.4.v 4.i.4.V v 4.4.v v V v v 4.4.s.w.w.s.4.i.4.s.i.i.w.i.s.x.4.g.s.h.h.",
"g.<.4.4.4.<.d 4.i.4.4.d v d 4.<.4.i.4.<.4.,.<.4.i.v f v 4.i.4.<.d 4.i.4.i.4.4.4.4.s.4.4.g.4.:.h.4.4.",
"4.4.4.<.4.<.4.4.<.4.:.4.4.4.4.i.4.<.4.4.i.4.v 4.4.<.v v ,.4.<.4.d 4.4.4.4.<.<.4.g.4.g.i.s.4.4.4.4.4.",
"4.4.4.s.4.4.4.4.4.<.4.4.<.4.4.4.4.i.4.4.d v 4.<.4.4.<.<.v 4.4.4.v v 4.4.4.4.i.4.4.4.4.<.4.4.s.s.4.4.",
"4.4.<.<.v d <.4.4.4.8.:.4.4.<.4.<.4.d <.v v 4.4.<.4.v 4.v v d d d v <.<.<.4.<.4.4.4.4.<.4.4.<.4.<.4.",
"i.4.<.d ,.,.<.> <.:.4.4.<.4.s.s.<.f i.d V i.v V i.,.,.,.i.4.4.-.<.4.4.4.4.v 4.<.<.,.s.s.i.<.d ,.<.d ",
"V f f d ,.,.4.; <.:.-.4.4.4.8.4.<.v v V 4.V f d d <.,.4.d -.4.<.v > <.v ,.<.4.4.4.4.4.4.4.v d v <.d ",
"4.f ,.<.4.<.v d ; 4.<.-.<.4.<.4.d v <.4.v f v V V v <.; v d d <.f t d V ,.,.4.4.V f d v d v f v v v ",
"V v i.<.d 4.d 4.4.d -.4.d v 4.i.4.<.4.4.i.V f V V d v > <.<.v d v f v f ,.,.d 4.d 4.V V v d r k f f ",
",.,.,.,.> <.4.d d 4.> v 4.d 4.i.4.s.4.,.v v V V v d d :.<.d d d d v d :.<.; ; d v v f V v d d - V d ",
",.,.,.,.v :.d 4.4.d 4.; d <.f d <.<.<.i.d v i.d v v <.4.> 4.d <.v v 4.d d 4.k d v v f v v d - v d v ",
"4.i.,.,.<.; 4.d d 4.d > > v > v <.v <.; :.4.,.i.V v d > v d v ,.d > v <.v f d v v d v d 4.4.v > v d ",
"<.4.d 4.d 4.d <.4.4.V f v v d v 4.> <.4.d <.,.,.d v v <.<.<.,.,.v d ; ; d v k - d v 4.d <.v d d <.v ",
"<.4.d 4.v d 4.4.4.d d V v d v V ; 4.; ; 4.<.4.4.d v v d > ; v d r ; v 4.d v v v v V d 4.<.v > k > k ",
"; > 4.; d <.4.4.<.4.V v v v v d 4.d 4.4.4.d d v r k d v v <.v V v v d 4.v v d r V d <.<.4.<.d v v d ",
"v > d 4.<.4.i.,.4.4.v d i.d v d d > 4.d > 4.d <.v 4.d d <.d f <.d - <.i.d v v > v v v d ; ; v d k r ",
"<.<.d 4.4.4.d 4.<.v d v v v V v 4.<.d 4.:.d :.<.<.d d d > v d d v d d f r v v v d - d v d 4.v f - k ",
"4.4.4.4.i.4.<.4.4.i.d V v v v f v v ; r v ; v - ; v d d k r d f d - v v v d d k d 4.4.v v v v d k d ",
"v <.4.s.<.4.<.4.4.4.d v v d V v V d v ; - k r > - - d d r d d d v ; V r v d v d f V i.d V v r v V j ",
"4.,.,.,.<.4.4.4.4.<.V d v r d 4.v <.> v d r > d v ; d d d r d d ; <.<.:.d v d v v d v v v v v V v v ",
"4.4.i.,.4.4.<.i.v v d v d v v <.4.; <.; r r ; d - r d d v d d d v ; > d v d v V d v d v v V d v d - ",
"v v V v d ; v <.4.; v V v d ,.,.4.; d ; > v d d d V r d f j v r v ; d v v ; d v k - v v v d v v v d ",
"d d v V :.<.4.; d v f d f f ,.f d ; :.; ; d d d r j d v j j r ; ; > v d d r v r d - <.v v d d v d v ",
"v v <.d ; v d :.v r d v V d d v v d d d - ; ; d V d d V v r d v v d - d k k d v d v v d > 4.r v :.<.",
"v r 4.d <.> ; <.d r v d t v t d V d d d v d v v f v v d t t v f ; r v v r r v v - ; d 4.v v d d 4.; ",
"4.> d 4.<.4.; 4.; 4.V d v d d r r d d d r d t v d > - v k d j f d v k - d - v v d v v v r ; v r v d ",
"4.4.:.d :.<.<.; v d f r t d d f v v d d d r v d v d v r d k V v v r r v k d v t f f - - k k - ; > d ",
"4.4.4.4.4.4.4.<.<.4.d d r v k t v - ; r - > k V v d d v v d d v > d d > d k V d f f v d v - v d > k ",
"; 4.4.4.:.:.s.4.; 4.v r r d r k ; r > ; k d d j r v ; r d v V V k v d v V d v v v f d k - ; r v k - ",
"4.4.i.v v d d <.d ; r d d r r d - r ; - - v > d > v V v f d f d d k v d v d 4.d :.d v ; v v r d k k ",
":.4.4.4.v v 4.4.4.v d r r d k d v ; ; k ; d 4.v k d f v V j d v j d d v k > > d <.v d > v d v v k k ",
":.4.4.i.V v 4.d v 4.r d k d r d d r ; r k - v d > > k d v r d r v d k f d j v <.; 4.k d v V v d v d ",
":.4.4.4.4.d d 4.4.<.r d r r d r r r > ; - - r > v - v r r d v - d k d k k d d v 4.; - d v d v v d r ",
"v 4.v v d v <.v d 4.d r v d r d - v - ; k - r ; ; ; > ; - > r k r v r k v f f f d v d 4.4.4.4.4.v v ",
"> 4.v d v v ; > 4.d r d d r r k - - k - g - - d k v d <.v d V d d - k k t f v v - d v d <.d ,.v d v ",
"> :.4.,.d v d <.d ; 4.<.d d d r k d - k k - d d d > > v d v d v > v v f d v v f v t d v d d v V d v ",
":.; > d > <.4.:.:.<.d f d d r d > - d ; - - v f d k <.v > d 4.; r v f f v f d t f v v f k v v v v d ",
"-.:.<.-.<.; 4.d d v ; d k d r d v d ; ; > d 4.> > v d :.4.d 4.<.d d k d f f v v r v d - r v V v v V ",
"-.4.d <.:.d d 4.:.<.4.4.r f r k v ; v r - v d d v d ; <.d 4.d :.> k d k v r f f ; v - k ; v V f v v ",
"; ; :.<.d 4.,.d <.; > > ; d d r v r d r v d ; 4.d v v d V d d v k > k d d v <.v v d k d v d v d V v ",
"; <.4.-.v <.,.4.d 4.v > v v d f > d V v r v 4.<.v > d V f v d d v - d k v d d d r v d v d v v v v v ",
"-.4.d d 4.d <.d d v d v <.; v d k ; V d v f <.v 4.> 4.d v d ; v v r f d 4.d 4.d v d ; <.v d r - j j ",
"d <.<.v d 4.,.v v d v d 4.; > d r v d v f d ; <.:.:.> 4.v > k d k - d v d 4.d 4.v v 4.4.v v k k V j "
};
